<?xml version="1.0" encoding="UTF-8"?>
<svg id="Layer_1" data-name="Layer 1" xmlns="http://www.w3.org/2000/svg" viewBox="0 0 940.93 799.31">
  <defs>
    <style>
      .cls-1 {
        fill: #daa520;
      }

      .cls-1, .cls-2 {
        stroke: #fff;
      }

      .cls-2 {
        fill: #c8c8c8;
      }

      .cls-3 {
        fill: #d62c20;
        stroke-width: 0px;
      }
    </style>
  </defs>
  <path class="cls-2" d="M410.43,533.5l-2.67-1-1.67-2.67-2-4h-2l-4.33.33h-2.67l-4-.67-5.67,1-3,.33-.33-1.67.67-4.33,2.67-1.67,2.33-2,1-1.33-1.33-.33-.33-3-2.67-3.33-5-5.67,4.67,2.33h3.33l2.67-.33,4.67.33,5-2,2.33-.33,2.67-8,3.33-.33,2.67-2h2.33l.67,1.33,3-7.33,3-.67-.67-5.33,4.67-.33v-2l1.67-3,.33-3.67-.33-3,3.67-1.67,4.67-2,3.33,1.33,2.17-1.17,3.5.17,4.5,5.5,3.17.67,2,1.83-2.67.42.5,1.83-6.42,2.75-4.25-.08-2.42-1.08-1.25,1.83.17,3.92.83,3.5,3,1.5.83,1.25.75,1.92-1.58,1.25-1.67.58.08,3.08-2.33,2.08v2.08l-3.42,2.83-1,2.67-3.67,3.33-1.33,2.17-4.33,1.5-1.83-1.67-2.33,2.17-1.5,3.67,2.67,2.33.17,3.33,2.17.67,1.33,3.67-.17,2.33-2.17,1.17-1.67-.5-6,.17-2.5,3Z"/>
  <path class="cls-2" d="M380.27,504.33l-.17-2,2.33-3.33.33-3.67-2.83-.67-.83-5.67-1.17-2.5.67-2.33-1-1,.33-2.83,1.33-3.17,1.5-4.17,2,.83,2.33.33.67,1,2.33-.83,1.33-3.33,4.83-1.5,1.67-3.17,1-2,2.17-.17,2.33-.5,2.17.17,2.67.33,3,.83,4.33-.17,1.17.17,2-2,2-.5,2.5-4,1.83.17.67,2.33.83.17.67,2.83-.17,2.33,1.67.33,3.5-2.17,2.17-1.17,2-.33,1.17,1.17,3.17-.83.83.17-.33,2.17-2.17,1.17-3.33-1.33-8.33,3.67.33,3-.33,3-1.67,3.67v2l-4.67.33.67,5.33-3,.67-2.83,6.33-.83-.33h-2.33l-2.17,1.67-3.83.67-2.67,8-2.83.5-4.5,1.83-4.67-.33-6,.33-3.83-1.5Z"/>
  <path class="cls-2" d="M409.27,465l1.67-3,.17-2-.17-4.5-1.67-1.17-.67-.67-.17-1.17,3.67-.33.5-2.67,1.5-3.33,1.5.5.17-1.67,1.17.33,3.67-1.83.5,2-1,1.17,1.17,1.17-2,.33-2.33.5-.83,1-2-.17.33,1.5h1.67l1.67.33,1.5.83h3.67l2-.67.83.17,1.5,1.33,3-.83,1.5-.67,2.83.83.17,1.5.83,2.33.17,1,2.17-.17,2,2,.33,3.17-1,.83-3,1-1.83-1-2,.33-5.67,3.33-1.67-.33.33-1.83-.83-3.33-.83-.17-.65-2.12-2.06-.44-2.5,4.31-1.79.25-2,2h-1.65l-3.19.25-.67-.25Z"/>
  <path class="cls-2" d="M421.62,447.81l4.19-.12,2.12-1.25,2.31-1.56,1.25-1.25-2.44-1.38-1.62.69-1.31-.12-1.5-1.88-2.62.94-2.62-1,.25-.75,2.38-1.12,1.56-1.44.81-.62-1.06-1.44,1.62-1.94,2.94.06h3.38l3.19,1.44.81-.88-.25-2.88,2-1.25,1.94.06,1.69,1.19,3.06.88,3.19-.38,2.5-.31,3.56-.12,2.38-.5,2,.38,1.69,2.19,1.5,1.81,2.12-.06.38,1.19-1.38,2.06-2.5.81-3.06,1.75-3.19,2.12-3.88.38-4.23,3.83-2.27-1.02-3.25,2.06-3.75,1.69-.62,2.19-3.1-.75-4.33,1.5-1.88-1.5-.88-.06-1.75.73-3.31-.1-1.85-.73-2.96-.46-.56-1.31,1.85.1.96-1.17,3.88-.69h.68Z"/>
  <path class="cls-2" d="M348.93,463.62l-.88-5.25-.25-1.75,1.25-2-1.62-.62-1-1.38.75-2.62-3-.25.25,1.25-1.38-1.12.25-3,.75-1.62,2,.25,2.5.38,2.38-.25,1.12-1.62-.12-1-2.25-1.62-1.38-1.75-.88-1.88-2.5.75-.75,1.25-.25,2.75-1.5-2.38.75-2.88,2.12-1.5,3.62-.75,2.5.25,2.12,1.12,1.38,2.5,1.5,1.38,2.88.25,2.5.12,1.38.12-.25-3.88,3-.75,1-1.25.75-.5.62-.88,1.75-.12,1.75,1.62.75,1.25,1.38.5,1.38,2,1.12,1.88,1,1.12,4.38.12,1.88,1.62,1.25,2,.62,1.5,1.62,2.88,1.12,1.62,2.5,2.12,3,1.5,2.75,2.12,2.5,1.75,2.38.75,2.75.5-.58,3.58-2.17-.17-3.25.46-1.25.21-3,5.04-4.5,1.62-1.33,3.33-2.33.83-.67-1-1.67.08-2.67-1.25-.71-5.75-3.25-.12-1.62-2.38-1.75-.25-1.5-2.5-1.38-.25-1.12.38-2.25-.25-.75-1.25-1.75-.25-.75-1.62-3.62-.12-2.12.88-2.25-.25-2.88,1.5-.62,2.25-3.5.63Z"/>
  <path class="cls-2" d="M359.06,439.75l-.62-22,10.75-2.25-.88,3.12-1.12,3.62.25,1.88.62,3.25,3,.5,1.62-.12,1.25,1.75,1.75-1,.5-.88,1.25.12.5-2.38,1,.25,3.75,2.88,4.75-.38,3.25,1.25,3.5-.62,2.88,2.75,1,5.12,1,2.38-.25,1.62-1.75,1.38,2.25,1.62,5.12.5,3,.75,1.12,1.38,2.38.88,1-2,1.12-3.12,2.12-2.5,3-.38,3.25-1.62,1,.75-2.81,1.88-.25.75,2.62,1,2.62-.94,1.5,1.88,1.31.12,1.62-.69,2.44,1.38-5.19,4-5.38.19-.83-1.15,1-1.17-.5-2-3.67,1.83-1.62-.71v1.88l-1.62-.25-1.08,3.25-.5,2.67-3.67.33.38,1.88,1.75,1.25.38,6.38-1.67,3-3-.83-2.67-.33.58-3.58-5.12-1.25-5.25-3.88-3-1.5-2.5-2.12-3.38-6-1.25-2-1.88-1.62-4.38-.12-3.25-4.62-1.25-.75-2.12-2.62-1.12-.5-1.38.25-1.38,1.38-1,1.25-3,.75.25,3.88-3.88-.25-.25-.75Z"/>
  <path class="cls-2" d="M358.93,440.17l-2.5.08-1.5-1.38-1.38-2.5-2.62-1.54-2.67.33-1.67.17-1.67.83-1.75,1.08-.58,1.92-1-.83.33-1.67.83-2.33v-1l-3-.17-1-1.67h-1.5l-.33-1.67-.83-2.17-1.33-2.5-1.83-.5-.67-2.67,2.5.5,3,.5-.83-1.83,2.5-3.5.5,2.33,1-2h3.17l.67,1.33,3-.67-1.5,1.83-1,2.17.33,1.17,1.5-1.5,1.67-2.17,3.5.17-.5-3-1.5-1.5-2-1.17-.67-2.33-2.33-3-2-2.5h-4l-4.17-.33-2.83,1.67-2.83.83-1.67,1.67-1,2-1.67,1.5.33-2.5,2-2.67-1.17-2-3.17-2.67-1-1.17-3-3-1.67-2.83.33-2.33,1.17-4.33,1-6.5,5.17,3.67.83-2.5-.83-2.33,1.5-2,.33-2.5,2.83-.33,3.83-2.17.5-1.67,3,1-.5,2.17,2.17-1.5,2.33.17,2.67-.83,2.83.83,3.33,3.33.67,3.33,1.17-1.83,1.5-.33,2.17,1.5,2.17.33,2.17-2.5h3.5l1.83,1.17,3.83-1,1.5,2.5,2.83,1.5,2.83-1.67,2.83,1.33,4.17-5-2-1.33-3.83-.67-.33-2-1.83-1.17,3.83-1.67v-4l-.5-.83,2-.33,4,.5-2.17-3.5-1.17-1.5,2.33-1.17-2.67-1.33,1.17-2.67,2.83.67,6.83-1,3.17-.67,3,.33,4-3.67,7.17-.67,2.5-1.17,3.5-3.5,2.67,1,2.67.33,1.83.5.83,2.67,1.33,2.33-.5,3.17,2.17,1.67.67-1.67,3.17.5.17,1.5,2.33-.83.5,1,.33,2.5h4l1.83.33,1.83-2.33,2-.33,2.5-4.67,3-.17-1.5,2.67,5.33,6.5,5.83,5.83,3.5,7,1.33,3.67,3.33-3.83,1.83,1,.83,1.5,1.83,2.17,3.33-.17,3-1,2.67.33,1.67,3.83,1.17,1.83,2.5-.17,2.17,3,2.33-.33,2.5-1.33,1.33,2.5-.67,1.5-.33,3.33-2.5,1.17-2.83.67v5.5l-.83,3.5-3.67,1-2.33-.83-3-.33-2.5,3.83-2.17,5.17,1.33,3.5-1.33,1.17-4.5-.5-5.33,1.5,1.83,2.5-1.17,1.83,1,2.67v3.67l-.67,2-.17,2.33-2.94.08-2.9-3.58-1.67-.83-1,.17-10,1-1.83-.17-2.48-.52-1.69-1.19-1.94-.06-2,1.25.1,2.35-.67,1.4-2.83-1.23-2.33.17-4.33-.44-1.62,1.94,1.06,1.44-1.94,1.31-1-.75-2.5,1.33-3.75.67-2.12,2.5-2.12,5.12-2.38-.88-1.12-1.38-4-.88-3.67-.17-2.71-1.83,1.75-1.38.25-1.62-1-2.38-1-5.12-2.88-2.75-3.5.62-3.25-1.25-4.75.38-3.75-2.88,1.67-.79-1.17-3.17,2.33-.33,1.17-1.83-1.33-.83-1.83-3.33.33-2.83,1.33-2.5-.67-1.33-1.5.5-.17,1.17-1.83-1.17v1.17l-1.83-1.17-.17,2.5,2.5.67-2.67.67-1.83-.83-.17,2.5h-1.5l-1.33-.5-1.08,1.33-10.75,2.25.51,22.42Z"/>
  <path class="cls-2" d="M382.43,526.83l-1.75.67-4.25-1.75-4.75.5-6.75-2-1.75-.5-1-5.25-3-.75-1.25,1.25-3.25,1.25,1.25-2-5,2.25-3.25-2.5-4.75-1-2.5-3.5-4-.25-.5-4-2-3-1.75-3-2.25-.5-.25,1-2.5-2-1.5.25-2.5-2v-3.25l-2-1.75,1-3.5-4-4-3.25-.5-2.25-6.5.5-3.75,2-2.25v-4l-2-.5-2.25-2v-2.5l-2.25-3-1.25-3.75v-3l-.5-3,1.5-3,2.5.25,2.5,1.5,1.25,1.25,1.5,1.75,2,.25,1.75-1.75,2-1.75,1.25-1,1.75,1.5-1.25,1.25,1.75,1.25-1.75,2,1.75,1.25,1.5,1.75v2.25l1,2.25,2,.5,1.5-.5,2.25,1.25-.25,1.5,2.25,1,4.5,1.25,3.5-.75,3-1,1.5,1,1.25-.75-.5-3.62,3.5-.62.62-2.25,2.88-1.5,2.25.25,2.12-.88,3.62.12.75,1.62,1.75.25.75,1.25,3.38-.12,1.38.25,1.5,2.5,1.75.25,1.62,2.38,3.25.12.71,5.75-2.83,7.33-.33,2.83,1,1-.67,2.33,1,3.25,1,4.92,2.25.83.25,3.5-2,4.5.5,2.25,3.5,3.42,2.67,3.33.33,3,.33,1.67-3.58,2.58-2,2.5-.08,2.92.33,1.67Z"/>
  <path class="cls-2" d="M318.43,454.17v-2.17s-.33-2.33.33-1.83c.67.5,1.33,1.17,1.33,1.17l.33-2.17-1.17-1.5-2.17-1v2.33l-1.33.67-.67-2-.67-1.83-1.33-.5-2.5-2-.33-2.5,4.5,1.67,1.33-1.5-1.5-1.33-1.17-2.17,1.17-.33,3.83,1,2.67,2.5,1.83.67,2-2.17,3,3.17,1.33,2.67,3.17,1.67-3.17,2.67-.67,3.33-.5,2-1.67.5.5,4.08-3.25-3,1.58-2.42-1.17-.83.83-1.25-1.33-1.25-5.16,3.67Z"/>
  <path class="cls-2" d="M308.43,449.75l-1.67-1.58-2-.5v-2.67l-.33-2-1.5-2,7.33-.17.33,2.5,2.5,2,1.33.5,1.33,3.83,1.33-.67v-2.33l2.17,1,1.17,1.5-.33,2.17-1.33-1.17-.33,4-.67.83-1.58-.5-1.5-1.75-2.08-1.58-1.67-1.17-1.33-.17-1.17-.08Z"/>
  <path class="cls-2" d="M302.93,441l-2-.5-.67-2-3.17,1.33-1.83-.5-.67-3.83-1.33-2.33-3.33-1-2-1.83-1.5-1.67,3.67-.17h4.17l3.67,2,3.33,1,2.67.33,2.67,2.17,2.17-.17,3.33.33,1.83,2.83-.5.5,1.17,2.17,1.5,1.33-1.33,1.5-4-1.5-1.33-.5-6.5.5Z"/>
  <path class="cls-2" d="M308.93,463.33l-2.17.33-1.67-.5-2.83.83h-2.17l-3,2.67-2,2.17-.33,4-.33,3.5-.83,2.17-10.33,7,.5,1.17.17,4.17.83.17.17.83,7.67.83,16.67,13.83,6.83.33,5-4.33,4.58-.5-2.5-2,.08-2.83-2.08-2.17,1-3.5-4-4-3.25-.5-2.25-6.5.5-3.75,2-2.25-.42-3.83-1.58-.67-2.25-2v-2.5l-2-2.17Z"/>
  <path class="cls-2" d="M297.1,464l-1.33,1.5-4-.33-5.67,2-3.67-1.5-4.83,1.5-1.67-1.5-1.67.83v2.5l-3.33,3.17-1.5,2.17.83.17.5,4.17h2l.5,1.83-1.83,1.33-.33,2-.83,1-.33,3.17,1.83,1.17.67,1.33,2.17-.17,3-1.33,16-10.5.83-2.17.33-7,4.83-4.83-1.33-.5h-1.17Z"/>
  <path class="cls-2" d="M316.77,506.5l3.83.5,2,2,1-.5,1.33-2.33.67-1.5-1.83-1.17,1.5-.33,1.92-1.42-6.08.75-4.33,4Z"/>
  <path class="cls-2" d="M270.27,484.83l-2.17-.5.67-2.33,1-1.67,1-1.67h1.5l1,1.83-1.83,1.33-.33,2-.83,1Z"/>
  <path class="cls-2" d="M269.93,488l-.5,1.5-1.67-.17-.17,2.17-.33,2.5,1.17.83-.67,2.83-.67,7.5,6,2.17,2.33-3.33,2-.5,1.67-1.67v-1l1.17-.17v-.67l-3.83-3.5v-1.17l8.67-3.17-.33-1.17-.83-.17-.17-4.17-.5-1.17-8.67,4.83-2.17.17-.67-1.33-1.83-1.17Z"/>
  <path class="cls-2" d="M265.6,512l1.83.83,1.67,2.5,2.33,3.83,2.67,4.17,2,2.67s-.33,1.17-.17,1.67c.17.5,1.5,2.67,1.5,2.67l4.33,2.67,3.33,6-1,3,.83,2.5.33,2.17,3.33,2.5,2.5,2,2.17,4.83,2.17,3.83,2.17,2.17,3,5.17,1.33-1.67.83-3.33h1.17l1,1s4.17-.67,4.83-.5c.67.17,3.33,1,3.33,1l4.67.33,1.33,1.17,1.5-1,2.17-4,3.33-2.17,5.17-1.5,6.5-.33,3.33-1,13.33-5.33,1.5-9.5-.67-1-1-2.17-1.67,1.33-8.67-1.83-3.5-3-2.17-3.17-.5.17v-2l-2.17-1.67-.17-1.83-1.17,1.5-1-2.17-1.5-2,1.5-2.5-.17-1.5-1.83-.17-2.67-1.33.17-1.33-1.33-1.67-1.5-1.33-.83-3-1-2-1,1.17-1,.17-2-1.67-3.33-.83h-7.5l-16.67-13.83-7.5-.5-8.67,3.17v1.17l3.83,3.5v.67l-1.17.17v1l-1.67,1.67-2,.5-2.33,3.33-6-2.17-.17,2.5-.17,1.67-1.16,2.67Z"/>
  <path class="cls-2" d="M345.6,566l3.33-1,2.5-.67,1.67.67,1.83-3.17.5-1.83h2.67l1.83-.33,1.33-3.83,4.67-.5-.67-4.17,1.83-2.5.67.67,1.17-1.17,1.67-3.33,2.33-2.33,1.83-3.33-2.67-2.33-1.5-1.83-2.33-1.17-2.5-.17-3.67-1.67-2-3-.67-1.17-1.5.17v2.5l.83.83-1.83.33-1.67,2.17-.83,3,1.5,3.5-1.5,9.5-12.83,5.5-.5,1.33,2.83,9.5,1.67-.17Z"/>
  <path class="cls-2" d="M339.52,532.42l3.33-.33,1.08-1,2.92.17,1.67.58,1.75-.92,1.58-2.25.83-1.67,1.92-.5,1.67-2.33,1.25-.58,1-.08.08-1.67,1.08-.83.67,1.42-.92,1.83.08,1.92-.08,1.67-1.58.58.08,2.08.67.83-2.08.58-1.5,2.33-.75,2.92-1.67,1.33-8.67-1.83-3.25-2.67-1.17-1.58Z"/>
  <path class="cls-2" d="M338.18,528.75l-2.42-1.83-.17-2.17.33-.75.75-2.25,1.42.58.83,2.33-.08,1.75-.67,2.33Z"/>
  <path class="cls-2" d="M334.43,520.08l-1.42,1.25-.08,1.67,1.17,1.42,1.67-.83-.25-1.33.67-1.25-.92-1.17-.83.25Z"/>
  <path class="cls-2" d="M341.1,556.67l2.83,9.5-2,1.83-.17,3-3.17.5-1.33,1-5.33,1.83-4,1.17-1.17,2.17-5,.33-2,2.33-4.33.17-3.33.67-.83,1.5-2,1.33-2.83-.5-.67.33-2.17-.5-1-2.83-.33-2.17-1-2.17.33-1.5-1-1.5-.67-3.17.67-1.33.17-1,1.17-2.17.67-2.83,1.33-.5,1,1,4.83-.5,3.33,1,4.67.33,1.33,1.17,1.5-1,2.17-4,3.33-2.17,5.17-1.5,6-.17,3.83-1.17v1.5Z"/>
  <path class="cls-2" d="M266.68,505.75l-.75-4.75-1.75-4.17.58-1.08.25-1.83.08-2.5,1.25-.92.17-2.42.75-1.75.83-2,2,.75-.33,3.25-.33,1.17-1.67.08-.67,4.5,1.08.83-.5,2.42-.67,8.17-.33.25Z"/>
  <path class="cls-2" d="M295.56,439.87l-2.5,2.62-1,.12-3.12,1.38-1.5-.38-2.5-.25-3.38,1.12-2.38-.38-2.38-.62-.5.38-2.88-1.5-1.62-.38-.75-1.88-2.75-.25-1.38-1.75-3,.38-7.88.12-1.88,2.12-2.5,1.25-.62,1.75-3.38-.12-5.75-.5-.88.25-2.75-1.5-2.38-1.75.12-2.25-3.75-.5-1.88,1.25-.25,2.5-1.12,2.62-1.5,1.12.38,1.25,3.12.12,1.5.12,2-2.5,2.5.25,2.38-.25,1.38-.12.75,1,.88.88.75.38-3,.5,1,1.62-2.12-.25-2.88-.12-1.75-.75h-3.62l-2,.38-.62,1.38.62,2.25-.5,1.5,2.12.12.88-.12-.38,2.25.88,1.38v1.75l-.75.75-1.25-1.12-.62,1.12.38,1.25,1.62.25,2,1-1.25,1.38,1.5.62.5,1.62-.75,1,2.12.38,2-.12-1.75,1.5,1.38,1.12.62-.88,1.75-.5.88,1.12,1.88,1.5,2.25.62,3.5-.38.38-2.5h2.25l2.75,1.12,1.88,1.5.88.88h5.12l2.12-1.38,2.25-2.12h2l.5,1,2-.25,1.5-2,.38,1.5-1.12,1.5.25,2.79,3.33-3.17v-2.5l1.67-.83,1.67,1.5,4.83-1.5,3.38,1.46,5.62-1.88,4.33.25,1.33-1.5,2.08.25,1.5-.38,1.88.12,2.88-.88,1.33.54,2.17-.33-1.62-3.83.12-3.75-.5-3,1.5-3-1.67-1.58-2-.5-.33-4.67-1.5-2-2-.5-.67-2-3.17,1.33-1.54.04Z"/>
  <path class="cls-2" d="M254.52,477.17l1.92-1.17h1.83l1.33-.92h2l3.08-1.92.42,1-2.67,2-.08,1.33.25,1-1.58.42-1.92-.08-1.25.33-1.08.5-1.25-.17-.42-1.33-.58-1Z"/>
  <path class="cls-2" d="M264.93,494.67l-3.17,2.33-3.67.83-2.67-.33-2.67-1.33-.5-1.5-2.67,1-2,1-.83-1.5-2.5,1.67-3.33,2-2.83-1.5h-3.5l-3-1.33-4-1.17-1.83.33-1.67-.17-.5-.67-1,1.17.17,1.33.67,1.17-.33,2-.67,1,1,3,.33,2-.17,35.5h25.83v-1.17l1.33.17v1.17l8.33-.17,1,.67h2l1.17-2,1.67-.33,1.5-2.5,1.33-.17,1.67-1.33-.83-3.17,1.5-.83-2.67-1.83-4.17-7.83-1.5-3-.17-2.33-1.33-1.83v-1.67l-3-3.5-1.17-3.83-.33-2v-2.33l1.33,2.67,1,3,1.67,3,3,3h1.33l.33-2,.5-2.17,1.33-3,.33-1.5-.67-3.67-1.75-4.17.75-2.17Z"/>
  <path class="cls-2" d="M253.6,372l-3.92,1.12-1.75,3.38-.25,2.5-2.5-1.25-2.25-.5-1.62-.62-1.38.75-5.25-.75-2.75-.75h-3.12l-6.38-.62-3.25,1.62-1.25.88,1.25,3.38.75,2.88-.62,2-2.88,1.88-1.75,2.38-.5,1.62-2,.38-.75,4.75,2.5,3.75,1.5-1,3.25.88,3,.38,1.5.75,2.38-1.25,2.25-.25,3-1.62,2-1.12,1.62-.62,2.88,1.38,3.12.75,1.5,1.5,1.12,3,1.38,2,.12,4.25-1.88,1-1.38.38-.62,2.38-1.25.88-2.12.12v1.5l1.75,1.62,1.75-.88,1.5-.25,1.62-.5,2.5-1.12.25-1.75.12-1.38,3-1,2.88-.75,1.12-.25v2.62l1.38,1.25,2.5-.38,2.12.5.78,1.54-1.62,1.25-2.5,1.38.12.75,2.38,1.38.88.38v3.25l1,1.5,3.75-1.25,2.38-1.62,1.75-1.38,2.25-.75,1-1-2-.5-2.12.62h-1.5l-.38-1.25-1.15-2.91-1.22.54-1-1,1.85-1.16,2.25-.5,2.25-2,3-.88,2.25-.62,2.38-1.12,2.25-1.75,3.46-.12-.83-2,2.75-1.5,1.58-1.83,2.29-.04,2.04-2.79-1.67-2.96,1-4.62-2.33-.58-1-1.33-1.17.17-2.33-1.83-2.33-1-1.5-2-2.5,1.5-2.83-1.17-3.5.33-2.17-5.67-3-.17-.67-5-2-2.67-8.5.67Z"/>
  <path class="cls-1" d="M260.58,415.29l-.78-1.54-2.12-.5-2.5.38-1.38-1.25v-2.62l-1.12.25-2.88.75-3,1-.12,1.38-.25,1.75-2.5,1.12-1.62.5-1.5.25-1.75.88-1.75-1.62v-1.5l2.12-.12,1.25-.88.62-2.38,1.38-.38,1.88-1-.12-4.25-1.38-2-1.12-3-1.5-1.5-3.12-.75-2.88-1.38-1.62.62-2,1.12-3,1.62-2.25.25-2.38,1.25-1.5-.75-3-.38-3.25-.88-1.5,1-2.5-3.75.75-4.75,2-.38.5-1.62,1.75-2.38,2.88-1.88.62-2-.75-2.88-1.25-3.38,1.25-.88,3.25-1.62,6.38.62h3.12l2.75.75,5.25.75,1.38-.75,1.62.62,2.25.5,2.5,1.25.25-2.5,1.75-3.38,3.92-1.12,8.5-.67,2,2.67.67,5,3,.17,2.17,5.67,3.5-.33,2.83,1.17,2.5-1.5,1.5,2,2.33,1,2.33,1.83,1.17-.17,1,1.33,2.33.58-1,4.62,1.67,2.96-2.04,2.79-2.29.04-1.58,1.83-2.75,1.5.83,2-3.46.12-2.25,1.75-2.38,1.12-2.25.62-3,.88-2.25,2-2.25.5-1.85,1.16M260.58,415.29l-1.62,1.25-2.5,1.38.12.75,2.38,1.38.88.38v3.25l1,1.5,3.75-1.25,2.38-1.62,1.75-1.38,2.25-.75,1-1-2-.5-2.12.62h-1.5l-.38-1.25-1.15-2.91-1.22.54-1-1M260.58,415.29l1-.31,1-.31"/>
  <path class="cls-2" d="M231.68,398.37l.62,1.12,1.25,2.12,1.88,1.62,1.5,3,.5,2.75-.12,4.88v.62l2.12-.12,1.25-.88.62-2.38,3.25-1.38-.12-4.25-1.38-2-1.12-3-1.5-1.5-2.75-.75-3.25-1.38-2.75,1.5Z"/>
  <path class="cls-2" d="M213.68,401.12l-.5,1.62-2.38,1.12-1.12,1.12-.75,1.88-1,3-2,1.62-3,.62,1.5,2.62,1.88,2.25,1.5.75.5,1.5,1.75,2.25,2,.5,1.5-.38-.38,1.75,1,1.62.5,1.38,5.75.75h3.75l1.88.25,4.5-1.62,1.62-1.25,2.5.88.75.25h1.12l.75,1.25,1.38.25,1.12-4.12.38-2,.75,1.5,1.88-1.12.62-2.12-.25-2.62-1.25.25-1.62.12-1.25.62-1.75-1.62v-7.75l-.75-2.25-1.12-2.75-1.88-1.62-1.88-3.25-3.88,1.88-2.25.25-2.38,1.25-1.5-.75-4.12-.5-2.12-.75-1.75,1.38Z"/>
  <path class="cls-2" d="M230.93,438.37l-1.88-.38-.38,2-1.88.88-3.12-.12-2.38-1-1.62-.38-2.5,1.38h-1.62l-.25-3.5-2-1.25-.5-1,.5-3.75,1.38-1.12-1.38-3,.38-2.62,1,1.88,2.75.38,5.12.38h1.62l1.88.25,3-.88,1.5-.75,1.62-1.25,2.88,1.25,1.5-.12.75,1.25,1.38.25.12,2.88-2.12.12-.62.62-.12,3-1.5,1-.75,1.12,1.75.12.62,1.88-2.88-.5-2.25,1Z"/>
  <path class="cls-2" d="M214.56,441.5l-2.75.75-1.12-.25-1.25,1.5-3.25.38-.62,3-1.5,2.25-.25,1.25-4,.5,1.5,2.88.88-1.62,1.12,2,1.38.75.38,1.5-1.25.88,1.75.25.88,1.62,2.12-.12,3.75.12,1.88,1.38h-1.88l-2.38-1-2.5.38-1.62,1.38-1.12-1.38-1.25-1.25-.62,1.5,1.25,1.12h.62l-.5,1.5,1.5.25.62-.75.25-.75,1.38,1.75.25,1.38.38,1.38.75,1.88.38-1.62,1.88,1.12.5,2s.88-2,1.25-1.5,1.75,2.25,1.75,1.75-.5-3.5-.5-3.5l-1.88-2.12,1.62-.62,1.12,1,1.12-.75-1.5-1.5,1.88-.38,2.25,1.38.38-2.5,1-1.38-.62-1.5-1.25-.88-2.5-.5-1.12-1-.12,1.5-1.38-.75.75-1.38-.12-1.75-.38-1.75-.88-1.5.62-3.75,1.38.75.75,2.25,1.62.62,1-2.12-.5-2,1.75.38,1.88-1.62.88,1,1.12-1.38,2.12,1.12,2-.12,1.5-1.12,1.12-2.62.25-2.5-1.38-.62-.38,2-1.88.88-3.12-.12-2.38-1-1.62-.38-2,1.5-2.12-.12-1,.75Z"/>
  <path class="cls-2" d="M216.43,474.62l1.88,1.25h2l1.62,1.25h2.25l2.88-.12,2.38-1.12,1.88-1.12,1.62.12.62-1.38,1.5-1.75,1.12.5,1.25-2.12-1.12-.88-1.75,1.5-.38,1.25-1,1-1.62.5-.88,1.12-1.75.88-1.25.62-1.12-.62-1.88-.5-1.88-.12-1.12-.38-1.25-.75-1.38.5-2.12-.38-.5.75Z"/>
  <path class="cls-2" d="M226.81,453.62l1,1.12,1.25.75,1.12-1.12-1.38-1.38-2,.62Z"/>
  <path class="cls-2" d="M226.81,457.37l-.25,2.38,2,.5.62-1.62-1-1.5-1.38.25Z"/>
  <path class="cls-2" d="M223.31,449.62l-.38,1.75h1.75l.75-1.25-2.12-.5Z"/>
  <path class="cls-2" d="M206.18,443.87l-1.75-2.21.33-3,1-1.17.5-1.5,2.17-.17,2-1.5,1.5.67h.88l1.12,1.33,1.38.92.25,3.5-1,.75-2.29.5h-1.58l-1.75,1.67-2.75.21Z"/>
  <path class="cls-2" d="M200.43,450.33v-1l-1.17-1.67-.33-3.67.17-2.17.17-1.17.33-1.67-.33-.5.5-4.67h2.5l1.33,1.17,1.33,1.17-.17,2.5-.17,2,.33,1.67,1.25,1.54-.58,1.79-.04,1.21-1.12,1.96-.62,1.54-3.37-.04Z"/>
  <path class="cls-2" d="M199.31,439l-1.25-1.12-2-1.62-.5-2.62.5-2.5,1.75-1.62,1-1.62.5-.5,1.25,1.12,2.25,2.12-1.12,3-1.88-.25-.5,5.62Z"/>
  <path class="cls-2" d="M199.93,426.75l-.62-3-.38-3.25-.12-2.62.25-1.5-1.38-2.62,2.38-1.38,2.75.12,2.88,4,2.12,1.25,1.12,2.12,1.12,1.62,2,.5,1.5-.38-.38,1.75.62,1.5-.5,2.25,1.38,3-1.38,2-.5,2.88-1.38-.12-1.38-.5-1.62,1.46-2.17.17-1.46,2.38.12-2.21-1.5-1.54-1.75-1,1.12-3-2.25-2.12-1.25-1.12.62-.62Z"/>
  <path class="cls-2" d="M192.56,432.12l-1.38.5v-2l-1.62-2.88-2.88-1.88-1-2.75-1.12-2.25-.75-1.62.5-1.38,2.12.88,1-.88,3.25.62,1.25.75,1.75-.5,1.62.38,2,1.62,1.62-.25.38,3.62.62,2.62-1.12,1.12-1.25,2.12-1.5,1.12-.5,2.5-1.25-.12-1.75-1.38Z"/>
  <path class="cls-2" d="M181.18,416.25l-3.12-.25-2.88.25-1,1.25-1,1,2.25,2.5.12-2.25,1-.62,2,1.5.62,1.38,1.12.38s-1.88,1.38-1.5,1.5,2,1.25,2,1.25l-.38,1-.12.75,1.5,1.62,1.5,1.12.62,1.5,1.75-.75,1.62.25,1.25,1,.38,1.5.88.38,1.25.75,1.25.88,1.38,1,1.38,1,1,.12-1-2.25-.75-.5-1.75-1.38-1,.62-.38-2.12-1.62-2.88-2.88-1.88-2.88-6.62.5-1.38,2.12.88,1-.88,3.75.88.75.5,1.75-.5,1.25.25,2.38,1.75,1.62-.25-.12-2.62.25-1.5-1.38-2.62h-5.75l-3.88-3.38-1.75-.75-1.88,1.62-1,1.25-1.88,2.88-.38.88Z"/>
  <path class="cls-2" d="M190.56,400l-1.12.25-.5,2.25-1.75.38-1,3-1,1.62,1.12,2.12,1.75.38,3.88,3.75h5.75l2.38-1.38,2.75.12,3.12-1,2-1.62,1.75-4.88,1.25-1.5,2.25-1.12.75-1.62-2.5-3.75-1.5.25-5-.38-1.75,1.25-1.62.75-3.5.62-1.25,2-2.5.25-2.88-.12-.88-1.62Z"/>
  <path class="cls-2" d="M174.68,416l-.38-1.75-1-2.12.75-2.5,2.12.38,2.12.38,2.88-1.25,1.62-1.12,2.38-.5,1.12,2.12-1.88,1.62-2.88,4.12-.38.88-2.5-.12-2.88.12-1.12-.25Z"/>
  <path class="cls-2" d="M189.43,400.25l-1-.88.38-1.75-.25-1.38-.25-1.38,1-1,3-.38,2.88-1.88.88-1.25.12-1.5,1.75,2.12,2.12-.88,1.75,1.38,1.88-.25h1.38l2.25-.38,1.38-.62,1.75,1.25,1.75,1.38-.75,4.12-1.5.25-2.75-.38h-2.25l-1.75,1.25-1.62.75-3.5.62-1.25,2-5.38.12-.75-1.25-1.25-.12Z"/>
  <path class="cls-2" d="M218.31,377.62l-.38-1.75.5-3-1.62-.88.62-2,1.5-1.75.12-3.25-1.25-4.12,3.25-.75.62-1.62,3.12-1.88h1.12l1-4.12,4-3-.38-2.38,1.38-1.25,1.75-.88,2.5.12,1.12-2,1-1,.62.88,5.38.5,1.12,1.83,3.5-.5,1.33,6.33,1.5,5,2.33,2.33.17,2,2.04,2.12-.88,3.04-3.33-.17,1.5,6.5-3.92,1.12-1.75,3.38-.25,2.5-2.12-1.12-2.62-.62-1.62-.62-1.38.75-5.25-.75-2.38-.75-2.75.12-7.12-.75-4.12,2.38Z"/>
  <path class="cls-2" d="M236.06,328.75l-1.38,1.62-2.38-.38-2.25.5-4.5-3.38-4,.88-.88.12v-2.5h-1l-.62,1.62-1.5-1.88-1.12-1.88-1.38.62-.38,1.62-2,1.12-1.25.5-.62,1.5-.75-1.62-.62-1.75.75-1.38h1.62l.38-1.25-.75-1.25-1.5-.25.88-.75,2.38-.88,1.12,1.25-1.25,1.75-.12.88,1.25-.12,1.25-.12.88-.88-.38-1.38-.88-.5,1.38-1.62,1.38-1.5,1.75-.38,2.25-1.88.75.62,2.88.12,1.38-.88,1.88.75,2.62.5,2.25.38,2.21-.25.33,2.67-2.83,2.83,2.29,5.75.5,1Z"/>
  <path class="cls-2" d="M219.06,337.25l-3.25.25-1.12-2.62-1.75-2.12-1-1.5-3.88,1.88-.88,2.5-.38,2.5-1.12,2.25v3.25l4-2.5,9.88-.38,1.88.38,1.5-.5,1.62,1.75,3,1,3,3.75,1.38-1.25,1.75-.88,2.5.12,1.12-2,1-1-.54-1.12.04-4.25-.04-4.08-.83-3.17-.88-.75-.88,1.62-2.88-.38-2.25.5-4.5-3.38-4.88,1-.38,6-.38,2.62-.88.5Z"/>
  <path class="cls-2" d="M205.43,344.87l.62,2,.38,2.12,1.12.5,1.5,1,2.62,1,2.75.5.38,2.38-.12,1.62,1.88,1.38.88,1.75.38,1.75,3.25-.75.62-1.62,3.12-1.88h1.12l1-4.12,4-3-.38-2.38-3-3.75-3-1-1.62-1.75-1.5.5-1.88-.38-9.38.5-4.5,2.38-.25,1.25Z"/>
  <path class="cls-2" d="M195.43,387.12l-3.12-.62.88-1.75-.75-.88-1.38.75-2.5-.38-.5,1.38-1.62-1.5.25-1.12-3.12-.12-2-.38-.75-1.25-.88-.75.12-2.88-1-2.25-.5-4.88-.25-1.25-1.25-1.75.12-1.62.12-1.25-1.5-2.62v-.75l.75-1,1.5.62-.46,1.08.42.92-.21-.88.75-2.12,2.5-1,3.12-.88,1.88-1.75,2.62-1.25,3.88-.5,2.25-.25,1.5,1.38h-1.5l.88,1.25,2.12,1,.88.12,2.62-2h2.62l2.5-.12,3.62,1.25,3.75.12,1-.88,1.75,1,.88,1.75.38,1.75,1.25,4.12-.12,3.25-1.5,1.75-.62,2,1.5,1.25-.38,2.25.38,2.12-.62.62,1.88,4.38.38,1.88-.62,1.5-2.5,1.75-2.12,2.5-.5,1.62-2.38.62-2.62-2.12h-1.12l-1.75.75-1.88-.12-2.62.5-1.75-1.38-2.12.88-1.75-2.12-.75-1.75Z"/>
  <path class="cls-2" d="M186.56,395.12l-1.12-.12-1.5-.88-3.5-.5-.25,1.75-2.12,1.12-2.75-1-5-4.75-1-1.75.12-1.75-1.12-2.38,2.62-.25,2.62-1.5,2.12-1.25,1.25-.12.38-1.75.88.12,1.38,1.62.38-1.25,1.12,1.38.5.62,5.12.5-.25,1.12,1.62,1.5.5-1.38,2.5.38,1.38-.75.75.88-.5,1.88,2.75.5.75,1.75-.12,1.5-.88,1.25-2.88,1.88-3,.38-1,1-1.75.25Z"/>
  <path class="cls-2" d="M174.18,396.75l-3,2.75.5,2.12-.62,1-3-.25-2.62,1.12-1.25-.25-.75,1-1.88-.75-2,.25-1.12.25h-1.38v1.62l.75.62,1.12.5.88-.12,1.38.62-.12.75h1.75l2-.62,1.62-.5,1.12-.88,1.25.12.88,1v1.25l1.75.12,2,.5,1.12.62,3.75.75,3.25-1.5,1.25-.88,2-.38,1.38-1.75,1-3,1.75-.38.5-2.25-1-.88.38-1.75-.5-2.75-1.75.25-1.12-.12-1.5-.88-3.5-.5-.25,1.75-1.62,1.12-2.25-.62-2.12.88Z"/>
  <path class="cls-2" d="M182.31,449.37l-1.25.25-1.62-.88-.5-1.75-.88-1.12-1.5.62-1-1.5-.12-1.38-1.5-1-2.75-.12-2.25-1.25-2-2.25-1.5-1.25-1.62-1.25-1.38-1.62-2.38-2v-3.5l-.75-1.5-.88-1.38-1-1.12-.88.25-1.38-1.12-1.75-.25-1.75.5-.88,1.75-1.38-.62-.12-1.38-1.75-.12-1.38-.75-.38-3.38-.75-1.12,1.5-2.12-.25-3.5,3.38-1.25h.88l1.25-1.88,1.38,1.75,1.12,1.5.88-1.12-.38-1.62h3.12l1.25-.12,2.12-2,.38-.88h2l2.38-.88,1.12-.88h1.62l.88,1v1.25l1.75.12,2,.5,1.12.62-1.25,2.5,1.12,2.5.25,1.38h-1.38l-2.38.12-1,.75-.62.5h-1.75l.62,1.12.12,1.38-.62,1.62v1.38l.62,2,1.62,1.38,1.88,1.25,1.25.12.75,1.75.25,2.38,1,1.62.75,1.88,2.5,1.88s2,1.12,2.38,1.38,3.12.75,3.12.75l-.38,1.38.88,1.38,2.75.88,2.5,1.38,2.25,1.12,1.38,1.12,1.38,1.62.38,1.25-.88,1.5-1.5-1.25-1.38-1.25-1.12-.5-1.12-1.12-1.25.88-.88,2.12-.62,1.12,1.75,1.5,1,.75-.38,2.25-1.25.62-1.12.75.25,2.12-.38,1.38-1.25.62-1.62.5-.62-1.38-1.25.38.12,1.25-.75,1.62v1.75l.38,1.5-.88,1.12-2.12.5-1.5-2.38h-2.12l-1-1.25-1.5-.25-.62-1-2.25-.12-.5-1.88v-1.12l2-.12,1.5-.12,1.25.12.88.88h2l1.88-.38,1.75-.5h1.25l1.12-.62,1-1.12.75-1.25.62-.62-.38-1.5-.25-2-.62-.75-.25-2.12-.75-.62Z"/>
  <path class="cls-2" d="M154.6,442.75l-1.67,1.08-1.42,1.17-.83-.42-.83-.67.17,2.25.83.5.25,2.17v1.5l.58.17-.83,1.25v1.75l.83,2.08,1.08.58,1.5-1.25,1.67-.17,1-.75-.42-3.17v-2.08l-.58-.67,1.17-.5-.08-1.42-.67-1.17.08-1.08-.67-.75-1.17-.42Z"/>
  <path class="cls-2" d="M146.77,413.58l-.58-.92-.33-2-1.33-.67-1.92.67-.42.58.92-2.33,1.67-2.83,1.17-1.67,1.83-1.17.75-.33,2.5.42,1,.17,1.5-1.08h2.33l1.33.17-.08,1.08-.17.92.12,1.04,1.38,1.46,1.38-.46,1.12.54.42,1.33-2.17,2.25h-4.17l.17,1.75-.88,1.12-1.71-2.38-1.08-.5-.75,1.5h-1.08l-2.92,1.33Z"/>
  <path class="cls-2" d="M148.02,402.42l-.17-2.83.67-2.42,1.58-1.83,1.08-2.08-3.92-.25-2.08-.75-1.58-.42-.5-.92.17-2.83-.67-1.42-.42-1,1.25-2.17-1.33-1.33-.58-1,.33-1.75.42-1.83-.08-2.08-.08-1.17,1.67-.25,1.33-1,1-1.67.33-2v-1.83l.58-1-.42-1.08-1.5-.42-.33-.92,1.08-.92,1.08-.83,2.33-.08.5.58.5,1.25,1-.17-.17-1.58.33-1h1.25l1.42.42.5-.58-1.08-1.08.08-.92-.5-1.17-.58-.67,1.08-.5.58-.67-.92-1.08-.92-1.17.17-.83,3.08.08.92,1.58.75-.33.83.75-.25,1.17,1,.83,1.25.17,1,.42,1.33-.17.25,1-1.67,1.08.08,1.42,2.17-.83,1.42.17.75-1.92,2.17-.17,1-1.33,1-.25,1,1.08,1.17-.17-.67-1.5,1.75-.92,1.5,1.67-.25,1.08-2-.08v1l1.17.75,1.33-.33,1.67.67-.5,1.75,1.08,2.17.42.92-.42,2.58,1.46,1.75.62,5.58,1.08,3-.08,2.67-.38,1.25-1.62-1.58-.62-.17-.29,1.58-1.58.25-4.5,2.79-2.62.25,1.12,2.38-.12,1.75.71,1.58,5.29,4.92.54.58-1.67.67-3,2.75.5,2.12-.83,1.12-2.79-.38-2.62,1.12-1.25-.25-.75,1-2.08-.67-2.92.42-1.17-.08-.08-1.33-3.25-.17-1.92,1.08-3.67-.5-.33-.58Z"/>
  <path class="cls-2" d="M144.77,364.17l-1.67,1-3.17-.17h-2.17l.17,1.83,2.17,1.67.33,2.33-2.17,2.17-1.17-2.17-.33-2.5-1-1.83-.83,1.5-.33,2.33v2l-1.5,1,.33,2.17,1.83.33-.33.83,1.33.83h1.67l1.17,1.5,2.42,2.17.58-3-.5-4.17,2.17.08,1.83-1.25.5-1.42.33-3.83.58-1-.42-1.08-1.5-.42-.33-.92Z"/>
  <path class="cls-2" d="M133.6,377.33l-2,.83-.83.5-1-.33-1.67,1.5-1.33.67,1,1.5,1.17.17.83,1.33,2.33.17,2,2.67.5,1.5,2.17-1.33.33,1.67,1.67,1.33,1.5,1.5.5-3,1.17-1.83,1.5-2.67-1.92-2.33-2.42-2.17-1.17-1.5h-1.67l-1.33-.83-1.33.66Z"/>
  <path class="cls-2" d="M143.43,391.33l-1.5-.17-1.67-.17.5-3,1.17-1.83,1.33,1.92.17,3.25Z"/>
  <path class="cls-2" d="M149.89,426.17c0,.76-.62,1.38-1.38,1.38s-1.38-.61-1.38-1.38.62-1.38,1.38-1.38,1.38.62,1.38,1.38Z"/>
  <path class="cls-2" d="M121.19,379h-3.25l-1.25-1.25,2.25-1.5,1.75-2.5,1.75-.25v-4.25l-2.75-2-2.75.25-.5,1.5-1.25-1.5.5-2.5-1-2-.25-2.25-2.5-3.5-3-2.75-1.5-1.75-.75-5-3-3.25-1.5.25h-1.5l1.25-1.75,1.25-.25-.75-2.5,1.75-1.5,1-3.25,1.5-1.5-.75-2.5h-5.5l-3,.75-.5-2,1.75-2.25,2.5-2.25-.25-2.25-2.17.5-2,.67h-3.33l-1,.83v2.17l-1.83,1.33.17,1.83s-1.83.33-1.5,1c.33.67.5,2.83.5,2.83l-2.33-1.33-.33-1.5-1.83.17v-1.83l1.83-1,.67-3.33-1.67,1.17-2,1.17-.17,1.83.33,1.33,1.33,1.5-.17,1.33,1.17,1,1.17,1.5,1.33.67.5-1.83.5,1.33-.67,1.83s-1.33.5-1.17,1,1.17,2,1.17,2l2-.33.83-1.17.17,1.67-1.5,1.67-.17,1.67-.33,2-1,3.5,3-2-.17-3.17,1.5,2.5.67,2.67-.67,1.17-.83,1.83.83,1.5,1.83-.5,1-1.33,2.17.67h1l-.33,1.83,1.33,2,.17,1.5,1.67-.33-.67,2.83v1.67l1.33,1.33-2.67.5h-2.83l-2.5-.83,1,2.17-1.83,1.67s-1.17,1.5-.67,1.33c.5-.17,2.67,0,2.67,0l.17,2.17-2.17,2.33-2.67,1.5,1.33,2.33,2.17-1,1.67.33,1,.33,2.33,1,1.5-.5-2.17,1.17-2.67.33-.83,2.17-1.83,1.33-1.5,2.17-3.67,3h2.83l2-1.5,1.67-.67,2.83,1.17,1.5-2.83,1.67-.33h2.67l1.33.33,3-1.5h2l3.33.17,2.5-.17,2.83-1.83,2-1-.08-1.17Z"/>
  <path class="cls-2" d="M110.1,305.83l-1.83,1.33v2.17l-1.67,1.17,1.83,1-.17,1.5,1.83-3,.67-2.5-.67-1.67Z"/>
  <path class="cls-2" d="M102.1,318.83l-1.67.5.33,1.67,2.83-.17-1.5-2Z"/>
  <path class="cls-2" d="M85.93,351.67l-1.17.33-.83.17-.83,1.5-1.33,1.5h-1.5l.67,2.17,1.83,1.67,2.33-1.5.67-.67,1.33,1.5,2.5.83,1-1.5-.83-2.33v-1.67l-1.5-2h-2.33Z"/>
  <path class="cls-2" d="M94.77,357.83l-.67,2.5,2.67-2-.67-1.33-1.33.83Z"/>
  <path class="cls-2" d="M87.06,372.62v-1.88l1.62-2.75-.12-2-.75-2.25.12-2.75,1.67-1.83-2.5-.83-1.33-1.5-.67.67-2.33,1.5-1.96-2-.54-1.83h1.5l2.17-3-.38-1.67h-1.88l-1.38.75-2.38.5-1.12,1.5v2.12l1.75.25v1.38l-1,.62-.5,1-1.75-.25-1.5-.38-1.25.12-.5,2-1.25,2,.25,1.88,1,1,1.38.75,1.75.5-1.5,1.62-.62,2,2.62.12-4.25,1.12-.5,1.75-1.25.5,1.88.75-1.88,1.12,1.12,1.12,1.88-1.12-1.75,2.25,2.12-.62-1.12,1.75,3.12.38,1.75-1.25,2-2,1.5.5,2.75-2.12,1.12-.88,2.12.38.75-1Z"/>
  <path class="cls-2" d="M234.06,308.37l-2.75-.12h-4.25l-2.88.62-2,1.25-1.88,1.25-2.88,1-3,.62-3.5-1.25,1.5-2.12-1.5-1.25-2.5-1.62-1.75-.62.25-3,.88-1.25v-5.12l-.88-2.88-.25-1.75.12-1-.75-1.75.62-2.88,2.38-2.62.62-2,2.25-2.62,2.5-2.62,1.75-1.62,2.62-2.5.75-2,2-3.88,2.75-.5.25-.88-.5-2.5.25-2.62-1.62-2.25-1.75-1.5-1.5-1-1-3-.5-1.62.88-3.88-1.12-2.5-.12-3.38.88-2.62-1.12-1v-3.75l1.12-1.62-1.5-1.38-1.38-1.12-1-2.12-2.88-1.25-1.5-1.88-3.25-2.88-.88-1.25.88-4,1.75.25,1.5,2.5.75,2.75,1,2.25,3.62,1.25h2.25l1.25-2.12,1.5,1,2.12,1.38,2.12-1.5,1.38-3.12,1-2.75.12-2.25.88-3.75,2.75-3.5,2.62-.25,3-1.12,1.5,1.88,1.62,1.62,2.25.62-.62,2.88-1.12,2.75-.38,2.88-1.88,2.92v2.17l1.5,3.33,3.83,4,1.17,3.5.88.96-4.5,7.75,4.79,12.79-.83,1-.33,3.83.33,3.83,1.33,2.17.33,3.5,1.5,2.33-2.17,3.33,2,3.17,2.5,1,.67,3,1.17,1-.42,2.54-6.42,5.96-4.08,7.42-3.92,3.25-2.33,3.17-.88.71Z"/>
  <path class="cls-2" d="M204.93,219.5l-2.75.5v2.75l-.5,2,.5,2-2-.25-2.75-.5-2.25-1.25-1.25,2.25-.5,3.75-3,1-2.75,1.5-.75,4-1.5,2v2.75l-2.5,4.75-1.5,4-1.5,2.5-2.25.25-.75,8.5-2,4.25-1.25,3.25,3,2.5-1.5,2-4.75.25-1.5,3.5-.5,4-1.5,3.75,1.5,4.75-.25,4.25,1,4.5.5,2.5-.5,1.75.25,5.25-.75,4-2.62,3.62-.62,4.5-2.38-1.38.5,4.12.38,3.12.75,3.25,1.12,1.62.5,2.38.88,1.38,1.62,3.38,1.62,2.12-.12,2.12-1.38,1.62,1.12,2,1.25,2.12.88,1.38,3.62-.88.75-2.5,1.25-2.62,3.75-.25,2.25.12,1.38-4,.62-2.38.38-4,1.25-2.25-.25-3.25.12-2.5-.88-1.12,2.12-1.25,2.88-2,.5.62,1.5-2.25,2.12-2.12.12-1.5.5-2.5-.62-2.12-1.5-2.5-1.88-1h-1.25l-1.25-2.5-.75-2.25.25-1.62,1.25-3.62-.38-2,.38-3.12.12-1.75,1.25-1.12.5-2.5,1.38-.12,2.12-3.75,1.5-2,1.62-.5,1.38-2.12,3.25-.62,3.25-3.25.38-2.5,1.62-.62-1.75-2.38s-.25-1.75-.12-2.12,2-2.25,2-2.25l-.88-2.75.38-1.75,1.62-.38.75-3.25,1.62-.88,1.12.75,2-.38,2.75-.25.62-.5.5-.12-1.5-4.62.88-3.88-1.5-2.25.25-3.62.88-2.62-1.12-1v-3.75l1.12-1.62-2.88-2.5-1-2.12-2.88-1.25-1.5-1.88-4.12-4.12-1.12-.62Z"/>
  <path class="cls-2" d="M197.31,329.62l-2.5,1-2.12,1.75.38,4.12.62,1.5,2.5-4,.12-1.62,1-2.75Z"/>
  <path class="cls-2" d="M188.06,334.25l-1.62,3.38-.88,5.12,2.38-4.38.12-4.12Z"/>
  <path class="cls-2" d="M254.1,212.5l-3.29-.38-1.88,1.54-3.33-.67-1,2-2.83,1.67-1,3.33-.96-.25.38-2.88,1.12-2.75.62-2.88-2.25-.62-3.12-3.5-3,1.12-2.62.25-2.75,3.5-.88,3.75-.12,2.25-2.38,5.88-2.12,1.5-3.62-2.38-.88,2.12h-2.62l-3.62-1.25-.88-2.75-1.5-3.12-1.38-1.88h-1.25l-.88,4-1.12-.62-2.75.5-.12,3.12-.38,1.62.5,2-4.75-.75-2.25-1.25-1,1.75-.75,4.25-5.75,2.5-.75,3.62-1.5,2v3.12l-2.5,4.75-1.5,4-1.5,2.5-2.25.25-.75,8.5-3.25,7.5,3,2.5-1.88,2.25-4.38.5-1.5,3-.5,4.38-1.5,3.38,1.5,4.75-.25,4.25,1.5,7-.5,1.75.25,5.25-.75,4-2.62,3.62-.62,4.5-4.38-2.25-.5-3.12-1.12,1.88-.25,2.5-3.25,1.88-2.38,2.62-2.88,3.5-2.88,1-3-.75-2.75-.62-2.12-2.88-2.12-2.12,2.75-1-.25-1.38,1-2.25-3.25,1.12-.5-3.12,3.88-1.38-1.38-1.12-.75-1.5-2.25,2.38,1.38-3.38-1-1.12-.12-1.38,1.25-1.88-2.38-.88.75-1.62,4.88-.38,1.38-.12-1.88-1.38-3.25.88-1.62-1.88,1.38-1.12-.38-2-.75-1.75,1.75-1.38,1.88.62-.38-2.12,2.38-1-2.62-.62,2.12-1.75,2-.88,1.75,1.12,2-.88-1.12-1.88.62-1.25,2.25-.25-1.38-1.12.88-1.38,2.5-.38,1.88-.12,1.25-1.75.5-1,1.75-.5,1.5,1,2.12-.25.5-1.5-2.5.38-.62-2.38.5-3.12,3-2.38,2.12-2.38,1.75-1.88-1.75-1.12,2.62-1.75,1.88-1.25-.38-1.5.38-3.25,1.38-1,.25-1.5-1.25-.88,2.25-2.5h2.25l-1.25-1.62.88-2.38.88-1.88,1.62-1.5.12-1.25,2-1.75,2.62-1-1.62-.62,1.25-2.75,2.12-.25-1.25-3,2.38-3.12,2.88-2-2.5-1.12-5.12,2-2.25.62-3.62,2.62-1.88,2.12,1.5-4.62,4.5-1,1.38-1.12,2.5-2.25.5-1.62-2.88.12,1.75-2.88,1.38-.38.25,2,1-1.5,1.62-1,.25,2.75,1.38-2.88,2.38,2.5,1.88-2.88,1.12-1.88-2.38.75,2.62-4.12,2-.75,1.25,3.25.88-2.88,2,1.62-.62-3.12-.12-3.38,2.88.12,1.25,2.5,2.12-3.75,1.5,4.75.62-4.62,1.5-.5,1.75-1,2.88,2.88-1-3.5-2.5-1.75,3.62-1,3.38,1.62,1.25,3.88v-5.75l2.12-1.12,1.12-2.62,2.5-1.5.12-2.62,3.12-.75,2.12,1.25-1.88,3-.12,4,2.5-2.62,3.75-5.25-.12,5.25s-.25,2.5-.12,2.12,1.88-3.75,1.88-3.75l1.88-3.12.38-2,3,1,1.5,1.25-2.62,2.88.25,3.5,1.75-5,2.12-1.12,1.88,1.75,2,1.38s2.12.62,1.75.88-.75,1.12-.75,1.12l3.12.62.75,1.25-.5,1.25-3.38,1.38-2.5.62-4.5-.38,3,1.12,2.38,1.38,1.25,1.12,1.75,1.12,2-.62,3.75-.62.25-1.38,3.25,1.25,1.62,1.5-.25,2.25-2-.12-1.33-1.12Z"/>
  <path class="cls-2" d="M76.93,445.12l-.38,3.88-1,2.5-1,2.88-.12,2.75.88,1.12,1.75-.62-.5,2.5-.12,3.38-.88,1.88,2.88.25,2.75.25,2.5-1.25.25-3.88,1.5-1.38-1-1.5.5-3.75-1.5-2.5,1.75-.88.88-2.75.25-2.62-.12-3.12,2-1.12.5-1-1.25-1.25-.12-1.12-1.38-.25-1.62.62-4-.25-.38-1.75-2.75,2.5-.38,2.5.25,2.5-.12,1.5Z"/>
  <path class="cls-2" d="M3.18,461.25l-2,.75,3.12,1.75,1.38-1.88-2.5-.62Z"/>
  <path class="cls-2" d="M108.77,428.17l-1.33,2.33-3.75-.25-3.5-.5-2.75-.25-2.5.5-8.5-.5-3.75-.5-1.75-1-2.38.75-.5,1.12-3.75.5v2.38l1.25,1.25,1.25,1.62.25,2.62,2.88-2.12.38,1.75,4,.25,1.62-.62,1.38.25.12,1.12,1.25,1.25-.88,1.25-1.62.88.12,3.12-.25,2.62-.88,2.75-1.75.5,1.5,2.88-.5,3.75,1,1.5-1.5,1.38-.25,3.88s1.5.12,2.25,1.12,1.75,2.38,1.75,2.38c0,0-.38,2.12.88,2.62s2.12.38,2.12.38l1.75-2.5h2.5l2-1.75,3-.12,1.63,1.25,1.88-.62,2.12-.12,2.25-3,1.88-1,1.75-.5,1.75-3.5,2.12-2.62-1.75-2.12.12-3.25,2.38-2.38,2.12-3.12.38-1.12,1.62-1.88,2.62-.25,2.75-1.88,2.63-1.75.5-2.25.25-1.79-2.63.04-3.12-.62-1.88-1.25-2-.25h-3.75l-2.12-.25-3.67-1.17.33-1.5-1.33-1.67Z"/>
  <path class="cls-2" d="M128.18,449.75c-.5.25-3.13,1.62-3.13,1.62l-.5,1s1.38.25,1.75.5,1.75,1.12,1.75,1.12l1.88-2.12-1.12-.75-.62-1.38Z"/>
  <path class="cls-2" d="M130.93,449.62l2.12,1.25,1.12-1.38-1.88-1-1.38,1.12Z"/>
  <path class="cls-2" d="M120.93,454l-1.38,2,1.62,1.62,1.12-2.5-1.38-1.12Z"/>
  <path class="cls-2" d="M53.68,508.75l-1.75,3.75,2.5-.5.25-2.62,2.25-1.75-.88-1.38-1.62,1.38-.12,1.12h-.62Z"/>
  <path class="cls-2" d="M43.56,509.88l-1.75,1.38-1.25,1.12,1.88,1.12,1.88-1.88-.75-1.75Z"/>
  <path class="cls-2" d="M46.68,512.13l-.62,2.12,1.5.88,1.12-2.12-2-.88Z"/>
  <path class="cls-2" d="M36.68,507.75l-.5,2.25,1.75.38.88-1.88-2.12-.75Z"/>
  <path class="cls-2" d="M223.6,494.33l-2.92-1.58-4.5-.75-1.5-2.25-4.5-1.75-5.75.5-2.5,3v4.5l-1.25,3-3.5,2.5-3.25-2.75-9.25-1.75-3.5-1.75v-3.25l-4.5-2.25-4.5-1h-3.5l-3.5-1.25-.5,2.5-5.5,3.5-.25,5.75-2.75.5-.25,1.75,1,3,1.5,3.25-.5,3,.25,3v4.25l-2.25,2.75,2.25,2.25,2.25,6h2.75l3,3.25,1.5,2,6.25,1.5,2.25,2,8.25-3.25,34.25,17.75.75-2.25,4.25.5-.08-9,.17-35.5-.83-3.75-.5-1.25.67-1,.33-2-.88-1.88.12-1.12.92-.67Z"/>
  <path class="cls-2" d="M156.18,499.75l-1.75-8.5-3-2.25-.75-2.25-2.5-5.25,3.25-4.75-.25-7.5-.5-1.5.5-.75,2.25-1,1.75-1,3-.5,1.25,1.75,2.5,1.25-.75,1.75-.25,2.5,2.25,3.25-1.25,2.25-2.5,2-2.25,1.75,1.75,1.5,3-.5,1,1.75.25,1.5-.25,1.75,2.25.5-.5,2.5-5.5,3.5-.25,5.75-2.75.5Z"/>
  <path class="cls-2" d="M129.18,554.5l10.75-3.25,26.75-18-3.5-4.25h-2.75l-2.25-6-2.25-2.25,2.25-2.75-.25-7.25.5-3-2.5-6.25.25-1.75-1.75-8.5-3-2.25-3.25-7.5,3.25-4.75-.25-7.5-.5-1.5-2-1.25-3.5-.5-3,.25-3,.5h-4.25l-3.25-.75-3.25,1-3.75.75-3.75.5-3.25,1-3.5,3h-3.5l-4.25,3.75,1.75,3,.75,7.75,1.75,1.25-.5,3-5.75,1-1.75,1.5-3,.75.25,3.25-5.5,3-2.25,2.75-3.75,1.25-1.5,2-2.25-1-4.5,2.5-2.75,1.5.25,6.5,45,31,1,1.75,5.25,2,.25,3.75Z"/>
  <path class="cls-2" d="M77.18,513.25l-18.5-.25,6-2.5,2.75-2.5,3.75-1.5,1-5.25v-5.5l1.5-3,1.75-1.75-.5-1.25,3.5-4,3.5-1.75,4.25-2.5,1.75-3.75,1.25-5,1.25-.5,2,2.25,2,1.25,3-.25,2.25.25,2.75.25h4l1.75,3,.75,7.75,1.75,1.25-.5,3-5.75,1-2.5,1.75-2.25.5.25,3.25-5.5,3-2.25,2.75-3.75,1.25-1.5,2-2.25-1-7.25,4-.25,3.75Z"/>
  <path class="cls-2" d="M42.18,544.5l16.75-.75-1-6.75,1.5-2.5,3.5-.5.5-12.25h14l-.25-8.5-18.5-.25-1.75,3.75-1.5,2.5-3,1.25-.75,3.5-1.25,3.25-2.5,3-2.75,3.25-1.5,5.5-1.75,2,.25,3.5Z"/>
  <path class="cls-2" d="M72.68,571.5l2.5-1.25,2.25.5,15.25-.25.25-3-1.5-.75-3.75-40,5-.25-15-10.5-.25,5.75h-14l-.5,12.25-3.5.5-1.5,2.5,1,6.75-16.75.75v1.75l1,4-.25,2,.75,2.25,1.5,1.75v3.5l-.75,3.5-1,3.25,4-.25,3.25-.25,2,1.75,2.75.5,1.75,2.25,4.25,4,2-1,2.25-3,2.25,1.25,2.25-1,2.5.75Z"/>
  <path class="cls-2" d="M62.68,576.25l2.75,2.25.75,2.25.5,4,4.5,2,2.5-2.25h2l2.75,3.25-.25,3,3.75,1.75,3.75.75,2-2s.25,2,1,2,2.5-1.5,2.5-1.5l.25-2.75,1-2.5,2.75-1.75,1.5-3.75,1.75-2,2,.25,5.25-2.75,5.75-4.5h5.75l7.25.5,6-1.25,1-2.5,2-5.25.25-.75.25-9.5-4.75,1.25-.25-3.75-5.25-2-1-1.75-30-20.5-5,.25,3.75,40,1.5.75-1,3h-15.5l-1.25-.25-3.25,1.5-1.75-1-3,1.25-1.5-1.5-2.25,3-2,1,1.25,1.75Z"/>
  <path class="cls-2" d="M116.93,573.25l.25,4.5,2,2,.75,2,5.25,2,.25,1,1.5.25,3,2.5.5-3.75,3-3.5,1-2.5,8.75.5,2,2.75,5-.75,5.5,2.5,5.5-2.25,4.75-.75,3.5.75,4.25-2.75,2-5,6-8,.25-11,2.25-4.5-3.25-6.25-.75-6.25-4,1-2.25-2-6.25-1.5-1-1-26.75,18-6,2-.25,9.5-3.25,8.5-5.25,1.25-8-.5-.25,1.25Z"/>
  <path class="cls-2" d="M174.18,578.5l2.25,2.75,1.75,1,1.75,4.75.5,4.5,1.75,2.25-6,1,.5,3.25,3.75,2.25,2.25,4.5,4,.25,1.5.5,8.5-2.25.5-3.5,5.25-.75,3.25-2.5,2.25-3.25,2.75-2.75,4.5-.5-2.25-2.25-.5-4.75-3-1,2.5-3.25-.5-2.75,2.75-3.75,1-3,3.5.25v-17.25l-34.25-17.75-4.25,2.25.75,6.25,3.25,6.25-2.25,4.5-.25,11-6,8-2,5,.5.75Z"/>
  <path class="cls-2" d="M273.43,575.5l2.75-.25,2.12,1.38,1.75-1.75,1.75,1.38,3.25-.75,1.38,1,2.62.75,2.88,2.5,1.75,1.38,1.75-.12,3.62,2.5,1.88-.5-3.62-3.38-2.5-2.38-3.75-3.38-2.5-1.12-.62-1.5-1.38-.5-1.38-4-1.5-5.38-1.75-2.12-3.5,2.75-1,.62-.75.5-2.88,9-.38,3.38Z"/>
  <path class="cls-2" d="M268.43,615.25l2.62.75.38,3.25h4.75l4.5,3.5,6.75.88.88-2,3.5-2.25,1.12,1.88,2.88.5,2-1.38,2.25-.38,3.38-2.38,6-.38,13.88-13.5-4.62.25-13.63-5.38-4.38-4.75.12-3.75-2.38-.12-1,.75-.62-4,1.12-3.5-2.5-2.25-1.75.12-4.75-3.5-2.5-1.12-1.38-1-3.25.75-1.75-1.38-1.75,1.75-2.12-1.38-2.75.25-1,6.5-2.25.75-2.75,4.75-.5,3.5-3.25.75-1.75,9.5-2.38.5v3l2.38,1,4.12,4.62,2.38,4.88Z"/>
  <path class="cls-2" d="M302.31,588.88l-1.5,1.25-2.38-.12-1,.75-.38-3.62.88-3.88,1.12.25,1.88-.5,1.38,2.38-.12,2.75.12.75Z"/>
  <path class="cls-2" d="M303.31,590l1.62,2.12,3.25,1.75,3.5-.38,2.5-1.5,3.38.38,2.88-2.12,2.25.25,3.38-.5,5.38-.62,2.5-2.25,3,.5-.5,1.75v3.12l1.12,1.12-2,.75-.25,2.5-.75,3.12s-1.38.12-1.38.5-2.62,4.38-2.62,4.38l-2.75,5-1.88,4.5-3,2.88-.38,2.5-9.12,8.88-4.75,2.62-5.88,4.38-3.38,4.25-4,5.25-2.5-3.88.38-15.88,2.5-2.12v-1.5l2-1.38,2.25-.38,2.75-2.12,6.25-.5,14.25-13.62-4.62.25-13.62-5.38-4.38-4.75.12-3.75,1.5-1.25,1,1.12Z"/>
  <path class="cls-2" d="M264.18,622.38l.62,2.75,1.75,3.5v3.75l-4.62,5,.12,5.25,17,9.25v2.12l6.5,4.38,2.88-4.5,3.25-6,3.75-2.75-2.5-3.88.5-15.5,2.38-2.5v-1.5l-2.88-.5-1.12-1.88-3.5,2.25-.88,2-6.75-.88-4.5-3.5h-4.75l-.38-3.25-2.62-.75-5.62,4.88,1.38,2.25Z"/>
  <path class="cls-2" d="M243.93,644.38l3-1.38,14.75-.62.25-5,4.62-5,.12-3.25-2-3.62-.5-3.12-1.38-2.25-3.38,2.38-9.75.75-1.12.12.12,4.38,2.12.88-1.12,1.62-6.12,6.38.38,7.75Z"/>
  <path class="cls-2" d="M241.68,645.88l-.75,2.38.75,3,1.25-.25,1,.12,1.12-2.25,3.62-.38v-2.88l-1.75-2.62-3.12,1.75-2.12,1.12Z"/>
  <path class="cls-2" d="M241.43,652.75l1.25,5.12,1.75-.12,3.88-3.88-.12-1.88-.5-1.25,1-2.25-3.62.38-1.12,2.25-1-.12-1.25.25-.25,1.5Z"/>
  <path class="cls-2" d="M242.43,660l1,3.5.12,2.75,3.25,3.25s1.38,4.62,1.75,5.12,4.75,2.88,4.75,2.88l4.62.88,5.12,1.88,1.38,2.25,1,5.25h3.12l3-.62.75,1.12,6.38-.38,1.38-1.75,1.75,1.25,2.5-1.25,6.37-1.25-3.5-3.62-.12-3.12-1.62-3.12-.12-4.38,1.12-2-3.5-2.88,1.25-3.5,1.38-3.88-6.5-4.38v-2.12l-17.38-9.5-14.75.62,1.75,2.62v2.88l-1,2.25.62,3.12-3.88,3.88-1.75.12-.25,2.12Z"/>
  <path class="cls-2" d="M182.1,605.5l-2.33,4-1.33,2.67h-1l1.33,4,2.17,3.83.5,3.17,4,3.5,3.17-5,6.67.5.83-2.17,3.17-4.17,5.33,2.33,8.17,1.83,1.67-2.67,4,1,2.83-2,1.5.67,3.83-1.5,2.33,1,2.83-.67,3.92,1.67-.5-2.75-3.75-3-1-3.5-4.5-1.5-1.83-1.42-.92-2.58-3-.5-.5-2.5-1.75-.5v-5l-2.62-2.25-.54-2.17-3.67.5-3.83,4.17-2.17,2.5-2.67,2-5.25.75-.5,3.5-8.5,2.25-1.92-.67-3,.17-1.17.5Z"/>
  <path class="cls-2" d="M43.6,568.5l-.17,2.67-2.83,2,2.17,5.33h4.67l2.83-1,2,1.83,2.17.33-.17.67h-3.17l-1.67-.67-4.67,1.17-2.67.33-.33,3.33,5.5-.33,2.5-1.5,7.67.17,3.17,1.17,6.08.75-.25-3.08-1-3.17-2.33-1.67-1.67-2.33-4.83-4.17-1-1.67-2.5-.83-2.42-1.83-7.25.5.17,2Z"/>
  <path class="cls-2" d="M42.77,585.33l2.83,1,1.83.83.83,3.83,1.5-1.33,2-2.33,2.83-.5-.17-1.83,1.33-2-6-.33-2.5,1.5-5.5.33,1,.83Z"/>
  <path class="cls-2" d="M42.77,578.5l-.67,2.67,6.83-1.5,2.67.5,2.67.17.17-.67-2.17-.33-2-1.83-2,1h-5.5Z"/>
  <path class="cls-2" d="M49.1,591.5l1.5-.83,1,2.33,2.17,2.33,1.83,1,.67,2,2.67.33,1.67-2.33,1.5-1.5,2,.33,1.67-1.33.83.5,2.17,5.17-.33,2.5,2.5-1,1.83.17,1.5,3.33.17,1.5h2l2.17-1.5,1.5-1.5.33-2,1.67-.67-1.17-4.17-.67-2.33,1-1-3.08-2.08.25-3-2.75-3.25h-2l-2.5,2.25-4.5-2-6.08-.75-3.17-1.17-1.67.17-1.33,2,.17,1.83-2.83.5-3.5,3.67.83.5Z"/>
  <path class="cls-2" d="M64.43,609.5l2-3.67,2.33-1.67,1.17-1.17.17-1.33h-1.5l.17-2.17-2.17-5.17-.83-.5-1.83,1.67-1.83-.67-1.5,1.5-1.67,2.33h-2v2.67l1.17,2,1.33.67.67,2.67,4.33,2.83Z"/>
  <path class="cls-2" d="M93.43,593.83l3.5,1.83.83-.83,3.5.33,1.83,2-.17-7.17,10.33-.33,1.5-.33,2.17.67,2.83.17,1.83-1.67,2.33-.33,1.67-2.67-.42-1.75-5.25-2-.75-2-2-2-.42-5.75h-5.33l-5.33,4.5-5.67,2.75-2-.25-1.67,1.67-1.67,4.5-2.67,1.33-1,2.5-.25,2.75,2.25,2.08Z"/>
  <path class="cls-2" d="M77.6,610.33l3.33,1.33,2.67,2.33-.83,4.33-.5,1.5-6.5-2.33-3.17-3-3.33-2.67-2.33-1.17-2.5-1.17,2-3.67,3.5-2.83.17-1.33,2.67-.5,1.5,3.33.17,1.5h2l1.67-1,.83,2.83-.17,1.5-1.17,1Z"/>
  <path class="cls-2" d="M85.1,619.5l6.33-3,7-.17,3.5-.33,1.33-.33-.17-2.5-1.67-4,1.67-4.83,1-3.83-1-3.33-1.33-1.83-4-.5-.83.83-5.75-3.92-2.5,1.5-1-2-2.42,2.08-4-.5-1,1,1.83,6.5-1.67.67-.33,2-2,2,.83,2.83-.17,1.5-1.17,1,6,3.17-1.33,6.33,2.83-.33Z"/>
  <path class="cls-2" d="M116.43,592.83l-.33,4.33,1.17-.17v4l.5,4.83.33,3,2.33,2.83-1.5,1.67-4.17.5-3.83,2-3,1-2.5,1.17-1.67-1-3-.83,2.5-.5-.17-2.5-1.67-4,2.67-8.67-1-3.33-.17-7.17,10.33-.33,1.5-.33.67,1.67,1,1.83Z"/>
  <path class="cls-2" d="M118.77,592l2.5,3.83,1,5.17.67,7.67.5,2-3,1-2.33-2.83-.83-11.17-1.17-.5.5-4-1.83-3.83,4.17,1-.17,1.67Z"/>
  <path class="cls-2" d="M127.43,610.17l-.17-11.83,3-3.33,1-3.5h.5l-1.83-4-3-2.5-1.5-.25-1,3.25-2.83.5-2,2.17-.67-.33-.17,1.67,2.5,3.83.83,4.17.83,8.33.5,2.33,4-.5Z"/>
  <path class="cls-2" d="M133.6,610.67l3.83,3.67.83,5.33,5.83.17,5.83-1.33,1.37-.82,1.96-1.18,1-4,5.5-5,4.67,2.33,4.17-7.83,2.17-2.67,1.67-3.5,1.33-3,1.5-3,2.33-1.5-.5-3.33-.83-4.17-2.83-2.5-4,2.17-3.5-.75-4.67,1.25-5.5,2.17-5.58-2.92-4.58.58-2.42-2.58-8.75-.5-1,2.5-3,3.5-.5,3.75,1.67,3.33-1.33,4.17-2.5,3-.33,12.17,6.17.5Z"/>
  <path class="cls-2" d="M156.93,624l.17,4.5,21.17.17,4.33,1.17,2.67,1.33-.17-2.17.33-2.33-4-3.5-.33-2.67-3.67-8.33h1l4.25-7.42-2.08-4.08-3.92-2.67-.5-3.25,6-1-1.75-2.25-.67-5.17-1.58-4.08-1.58-.58,1,6.67-2.33,1.5-4.5,10-2.17,2.17-4.17,7.83-4.17-2.17-6,4.83-1,4-2.33,1.5,1,2,.83-.67,1.17,2.17,2.67-.67-.67,2.33,1,.83Z"/>
  <path class="cls-2" d="M164.43,628.67l-.67,5.67-4.83-.5-.67,1.33-1.5-1-1.67-.67,2-5,7.33.17Z"/>
  <path class="cls-2" d="M172.43,628.67l.33,4.5,4.67-.67-.17,2.5-1.17,1.83-.67,1.83.5,1.83,2.17.67-.5,6-1.67,1.83-2-.67h-2.5l-2.5-2-.17,2.5-2.33-.5-1.33,1,.67,2.5,1.33.5-.83,2.5-2.17-.17-1.17,1-8.5-9-2.17-4.67,2.33-1.33-.17-4.5,2.33-2,1,1,1.17-1.33,4.83.5.67-5.67h8Z"/>
  <path class="cls-2" d="M195.27,622.17l-.17,2.67-2.17,6.5-1.67,4.33v4.17l-6.83,8-.17,6-4.83,5-2.17-2-2.5,1.5-2,1.17h-1.5l-1.5,2.17-1.83,1.83v2.33l3.83-1.5,1.17-1.5,2.83,1.33,10.83-.17,1.5,6.17,3.33,2.67,7.83-.17.17-1.83-.33-1.67,5-.83v2.17l5.5-.33-.33,2.17.83,4-1.33,3,2.67,4.33.17,1.67,7.17.83h1.67l.5,1,2.5-1,2.33,1.83,4.67,1.83,1.67-1.67,2.83,2.17,1.33,1,1.67,1.67,2.67,2.33,2.83.33,1-.83-.5-4.5-3,1.67-2.33-2-.67-2.33,1-3.83.17-3-.33-1.67,1.83-3.33,7-1.67.96.46-1.75-5.12-3.25-3.25-.12-2.75-1-3.5.25-2.12-1.25-5.12.25-1.5-.75-3,.67-1.92,2.21-1.58.12-8.25,6.88-7.88-1.71-.96-.33-3.83.5-.83-5.08-4.5-4.58,1.33-7.83-4-2.83.67-2.33-1-3.83,1.5-1.5-.67-2.83,2-4-1-1.67,2.67-8.17-1.83-5.5-2-3,3.83-.84,2.17Z"/>
  <path class="cls-2" d="M188.6,621.67l6.17.5.33,2.67-3.83,11.33v3.67l-6.83,8-.17,6-4.83,5-2.67-2-4,2.67h-1.5v-1.67l-1.5-.17-3.17,2.5-1.5-2.33-2.17-2.17,1.17-1,2.17.17.67-2.17-1.17-.83-.67-2.5,1.33-1,2.33.5.67-2.33,1.83,1.33,2.67.5,2,.67,1.67-1.83.5-6-2.17-.67-.5-1.83.67-1.83,1.17-1.83.17-2.5-4.67.67-.33-4.5h5.83l4.33,1.17,2.67,1.33-.17-2.17.33-2.33,3.17-5Z"/>
  <path class="cls-2" d="M218.27,686.17v3.5l.33,2.67-.5,2-8-.33.33,15.5,2.33,1.83,2.17,1.5.67,1.33,6.83-.33,1.17,1.33,7.33,1.17,6-5.33,2.33-.67,1-3.5,5-1.67-.5-1.67,13.17-4.83-.67-2.33.83-3.17,1.33-1v-5.17l1.83-2.5-3.33-6.12-4.62-.88-5.71-3.33-7,1.67-1.83,3.33.33,2.33v3.5l-1.17,2.67.67,1.83,2.33,2.5,2.83-1.17.67,4-.83.5h-3l-4.33-4-4.17-3.17-1.67,1.67-4.67-1.83-2.33-1.83-2.5,1-.5-1h-2.17Z"/>
  <path class="cls-2" d="M264.27,701.17l.5,3.67-.67,3.5,2.5,2.83.83,1.67,1-4,1.33-1.5.83-5.67-4.5-5-1.67-3,1-5.92-1-5.25-1.38-2.25-5.12-1.88,2.83,5.62-1.33,3v5.17l-1.33,1-.83,3.17.67,2.33,2,1.5,1,1.5,1.67-.67,1.67.17Z"/>
  <path class="cls-2" d="M246.27,705.5l1.17,2.17,4,.17,3,1.67,2.33,1,1,3.83v4.83l-1.5,1.67,1.5,2.33.17,2.83-2,3.5-1.5,3.17-3.67,5.17,2.17,3.33s-1,2.17-.33,2.67c.67.5,2.5,7.33,2.5,7.33l-.67,3.17.33,3.83,2.67-.33-.33-2.67-.67-.17,1-2.33,4.67-1.5,4.67-3,1-5.33.5-7.33-2-1.33-.17-3.67-2-2.67,1-2.67,3.5-1.5,2.33-2.83,2.67-.17.83-4,5.17-2.5,4.83-1.5,2.33-2.33,2.83-3.33,2.33-3.33-.33-2.83-.67-1.5s0-7.33-.5-8.5c-.5-1.17-.33-3.33-.33-3.33l.58-2.62-6.38,1.25-2.5,1.25-1.75-1.25-1.38,1.75-6.75.12-.38-.88-3,.62h-3.12l-1,5.92,1.67,3,4.5,5-.83,6.17-1.33,1.5-1,3.5-1.5-2-1.83-2.5.67-3.5-.5-3.67-1.67-.17-1.67.67-1-1.5-2-1.5-12.67,5v1.5l1,.33Z"/>
  <path class="cls-2" d="M328.1,690.5l-2.5,3.83s0,2-.5,2-4,.5-4,.5l.33,3.5-1.67,2.33-1.83,2.17-3,1.33,1.33,2.5-3-1-4.67.83-1.5.83.33,1.83-2.33,2.83.33,4.5,1,3.5,1.5,3.33-1.5,3.17-1.5,2.33-1.33,2-1.67,2.17.83,6,2.17,2.17-1.33,2.67,2.5,3.5s2,1,2.33,1.67c.33.67,2.33,2.33,2.33,2.33l2.5-2,3.33-.33,3.17-3.17,2.33-8.67,3.5-12.17,3.5-9.67.33-4,.83-2.67-.17-3.5.67-1.17,1,1.67,1.17-2.17-.33-3.83-.5-4.67-2.33-4.33-1.67-2.17Z"/>
  <path class="cls-2" d="M224.6,715.83l.5,2,1.17.83,1.83,4.33,1.17,2,2.83,1,2,1.67,1.5,1.17.17,2.5,3.67,2.33,2.17,1.67,4,.17,5.17,2.33,4.17-5.83,3-6-.17-2.83-1.5-2.33,1.5-2.33v-4.17l-1-3.83-5.33-2.67-4-.17-1.17-2.17-1-.33-5,1.67-1,3.5-2.33.67-6,5.33-6.33-.5Z"/>
  <path class="cls-2" d="M165.77,713.33l3.83-.67,3-.33,3.33,1.5h17.67l4.67,1.83,11.67.67,5.67-2.17,6.83-.33,2.17,2h-2.17l-1.83.83-3.33,2.17-1.83-1.67-8.33,1.33-.83.33v16.17l-4,.33.17,30.83-2.67.67-.67,1.17h-4.17l-4.17-.5-1.83-2.5h-1l-1.67,2.33-4.67-4.83-2-5.33-1.17-4.67-.17-3.67-1.17-4-.17-4.5.17-1.67-1.67-3.33-1.83-2-3-7-1.17-3.67-3.5-3.5-.17-5.83Z"/>
  <path class="cls-2" d="M174.77,685l-1,6-2,3.5s-2.83,3-3,3.67c-.17.67-1.83,7-1.83,7l-1.83,5.33.67,2.83,6.33-1,3.83,1.5h17.67l4.67,1.83,11.67.67,5.67-2.17-.67-1.33-4.17-2.83-.67-16,8,.33.5-2-.33-6.17-6.67-.83-.17-1.67-2.67-4.33,1.33-3-.83-4,.33-2.17h-5.17s-.33-1.83-.33-1.83l-5,.83.33,1.67-.17,1.83-6.83.17-4.33-2.67-1.5-6.17-10.83.17-2.83-1.33-1.17,1.5-3.83,1.5,2.67,4,.33,2.33,1.83,3.67-1.5,2.83,1,4.67,2.5,1.67Z"/>
  <path class="cls-2" d="M166.6,660.17l1.33,3.33,2.33-2.67,1-1.33v-1.67l-1.5-.17-3.17,2.5Z"/>
  <path class="cls-2" d="M202.43,749.75l2.75,3.25v3.75l.25,1.75,6.25-.75.75-2.75,3.25-4,1.25.75,5.75,1h3.5l2-4.25,1.5-.5,2.25-5,4.5-4.25,3-2.25,2.17-1.17-5.83-4-.17-2.5-3.5-2.83-2.83-1-3-6.33-1.17-.83-.5-2h-2.17l-5.17,3-1.83-1.67-9.17,1.67v16.17l-4,.33.17,14.42Z"/>
  <path class="cls-2" d="M210.43,794.75h4.5l2.5-.75,4.5,1.5,2.75-1.75,2-1.25,4.5-.5,3.25-2,2.75-2.5,4.75-4.25,3.5-4,5.75-9.25,4.5-4.5,1.75-7.67-2.67.33-1.33,2.58-4.75-.75-.25-3.5,1.5-3.25h4.25l.92-2.08-1.92-6.92-1-1.5.75-1.58-2.17-3.33-5.17-2.33-4-.17-9.67,7.67-2.25,5-1.5.5-2,4.25-5.25-.25-4-.75-1.25-.75-3.25,4-.75,2.75-6.25.75-.25-5.5-2.75-3.25v16.42l-2.67.67-.67,1.17h-4.17l-4.17-.5-1.83-2.5h-1l-1.67,2.33,1.67,4.17,1.25,5,2.75,3.75,1.5,3.5-.25,4.5-2,.5,2,3.25,2.5,3.5,3.5,2.5,1.25.75,4-1.75,4-.25,2-2Z"/>
  <path class="cls-2" d="M238.68,766.88l-1.75,1.25-1.75.5-3,3,.75,1.88,1.5,2.38,1.75,1.25.88-1.88,2.12-1,1.75-.88.25-2.25.5-1.62-1.5-1.38-1.5-1.25Z"/>
  <path class="cls-2" d="M254.43,755.25l.38-2.5-4.5.38-1.62,2.75v4.12l4.88.38,1.21-2.21-.33-2.92Z"/>
  <path class="cls-3" d="M286.44,428.67l7.83-.17,3.67,2,6,1.33,2.67,2.17,5.5.17,1.83,2.83,4.5,1.17,2.67,2.5,1.83.67,2-2.17-2-4.17-2.75-4,1-3.5-1.5-.75-1.25-2.5-2.25-.75,2.5-2.75,2-5.25.75-2,2,2.25,1.67-1.58.33-2.5,2-2.67-1.17-2-7.17-6.83-1.67-2.83,2.5-13.17,5.17,3.67.83-2.5-.83-2.33,1.5-2,.08-3.25,3.08.42,3.83-2.17.5-1.67,3,1-.5,2.17,2.17-1.5,2.33.17,2.67-.83,2.83.83,3.33,3.33.67,3.33,1.58-2.58,1.08.42,2.17,1.5,2.17.33,2.17-2.5h3.5l1.83,1.17,3.83-1,1.5,2.5,2.83,1.5,2.17-1.67,3.5,1.33,4.17-5-2-1.33-2.92-.25-1.25-2.42-1.83-1.17,3.83-1.67-.5-4.83,6,.17-2.75-4.58,1.75-1.58-2.67-1.33,1.17-2.67,2.83.67,10-1.67,3,.33,4-3.67,7.17-.67,2.5-1.17,3.5-3.5,3.25,1.25,3.92.58,1.08,3.67,1.08,1.33-.5,3.17,2.17,1.67.67-1.67,2.58.5.75,1.5,2.33-.83.5,1,.33,2.5,5.83.33,1.83-2.33,2-.33,2.5-4.67,3-.17-1.5,2.67,6.42,7.83,4.75,4.5,3.75,8.25,1.08,2.42,3.33-3.83,1.83,1,2,3.67,4-.17,3-1,2.67.33,2.83,5.67,2.5-.17,2.17,3,2.33-.33,2.5-1.33,1.33,2.5-.67,1.5h4.5l1.83-2.25,3.83-.25,1.17-2.67,2.25.67,2.5-1.75,3.58-.58,2.33-2,1.67.33.5-1,2.17,2.17,5.67-.17,2.58,2.5,1.25,1,4-.33,6.67,1.67,2-.67.67-5-1.83-.83-.33-3.5,1.5-4.67,1.83,1.33,1.17-3.5,4.33,2.25,6.17,1.75.83,1.5,3.75.25-.58,3.25,1.67,3.33,3.92,1.17,2.42-.33,1.83-1.17,5.33.67,1.17.83,3.33-.17,3.42,3.17,4.25,1.83,4.5.92,5.5,1,4.67-1.25,4.58-2,1.75-2.25,1-2,3.5-.92,2.25.17,1.75,2.5.5,1.33,2.83-.67,3.42,1.08,4.42,2.58,2.08-2.33,1.75-1.75,1.83-.08-.08-2.92,1.92-4.42,3-3.5,1.17-4.33-1.83-2.25-1-.5,2.67-3.75,4.08-.5,4.08-.17,3.67-1.08,3.5,2,3.83,1.92.5-1,3.17,2.83,3.75,9.25,3.42,7.25v2.83l1.33,1.33,6.83,1.17,3.5,5.17,1.17-.33-.5,2.17,1.5,1.92v2.42l3.25,1.33,4.75-1.75,6.25-1.75,4.58-1.33-1.33,2.67-.5,3-1.5,1.67-.5,3.5-2.33,4.33-1.33,3.83-1.5,1.5.17,1.67-4.5-1.58-1.67.58-1.33,1.92-1.75.25,1.25,5-.67,4-.17,1.5-3.33,2.08,1.58,1.67.46-1.5,1.5.25,1.62-.88.75-2.12.25-1.38.5-.88.38,2.25,1.62-1,.75,1.25,2.38,1,1.88.75,2.25-1.5,2-.62,3-2.38,1.62-2.38,2.38-3.12h1s1.5-4.25,1.88-4.5,3.75-2.38,3.75-2.38l2.62-5,1.5-3,1.12-2.88,1.25-.88.75-2.38,2-2.38,1.62-2.25,1.5-2-.38-3.62,1.25-1.12-.12-3.25-.25-3.25,1.12-4.75.25-3,1.88-2,.88-1.75,1.12-.12.25,2.75,1.75,2.88-.12,4.25-.12,4.38.12,5.38-1.88,4.38,1.25.5.75,3.62-.88,2.25.12,4.12-1.12,2,.5,3.88,1.5,1.75.25-2.38.25-2.12,1.88-1.38s1.75,1,2,1.38,1.75,2.25,1.75,2.25l.12-2.12-2-3.12-.88-2.12-2.5-2,.62-3,1-3.12.25-2.62,2.62-1.88h2.75l2.62,3.5,1.38-.62-1.75-2.12-2-3.38-1.62-4.75-.88-4.12-.62-3.25-.25-2.38-1.75-2.5.62-2.62.88.75-.5-5.75-.62-3.38-.75-1.88.38-1.12-.88-2.25-1.38.5-1.75.12,2.12,2-.12,2.12-2,1-1.88.88.75,2.25.5,1.62-.75,2.38-.38,1.5-.12,1.12h-1.38l-.62-1.5,1.25-.12-.75-2.62-.75-1,.75-.88.12-1.75-1.75-1.62-1.88-1.12-.88-1.38-2.25-1.88-.38-.88-1.75.88-2.62-1.38.12,2.88-.38,2.5-1.38-.25.5-2.62-1.88,1.25-.88,1.75h-2.5l1.88-2.12-.75-1,.88-2h-2.5l-1.12,2.12-.25-1.88.25-2.12-1.62-1.12-3.12.75-2-1.25.75-2.38,2.5-1.5,2.38-2,2.62-2.88,2.88-2.12,2-3.75,3.62-4.12,2.5-2.12v-3h2.12l1.88-4,3.88-3,3.12-2.88,4.25-.38,5.88-.25,2.5-1.5,1.88-.5.88.75,1.5-.25,1.38-1.5,2.5.88,1.62.62,2.38-.62,1.75.62,1,.62,2.12-.5-.88-1.25,1.12-1,.25-2.38,2.62.75,3.62,1.83,3.5.17,1.83,1s3.5,1.5,3,1.5h-5.17l-.33,2,2.5,1.17,2.83-1.5,2.5.5,2-2.17,2.83,1.5,1.5-2.17,4,.5-2.67-3h-2.17l-.17-4.17,1.17,1.17,1.67-4.67,3.33-2.17,1.83-3,3.17-2-.33-2.83,6.83-2,3.83-.83.83,1.17,3.17-1.33-.83,4.33-1,1.5.33,3.17,2.17-1-1.17,3.33,2.83-1.67,2.83-2.33,4.17-3.67,2-1.67,1.17,1,.17-3.5.17-4.5,2.17-1.5,4.67-1,2.33,2.5-4.33.83-.67,4.17-1.17,2.83.17,2.5-1,1.83-.5,2.83-2.67.17-3.5,2.17-.17,2.5-6.5,5.83-2.83,4-4,4.83-3.33,4.5-2.67.67-2.5-.33v3.17l-1.33,3-3.83,4-.67,8.83v6.17l1,6.5,2,7.67.33,4.67.67,4.83,1,2-1.83,1.5-2.17,1-2.83,2.17-.83,2v2l-1.17,1.83-1.5,2.17-2,2.33-1.33,3.33-2.33,1.5-1,2.5-1.33,2.5-2.5,1.17-1.83,2.33-3.67,2.83-3,.83-2.17,2.83-2.5,2h-2.17l-2.33-.5-1.33,2.33-3.5,2.67-1,1.33-1.67-.33-1.83,2-.5,1.83,1.17-1,2.17-1.17.67-.67,2-1.67v1.83l2.33-2.17,2-1.67,2-1.33,2.33-.83,2-1.83.83,1,1.33-2,2.33-1.5.5-1.17,4.83-3.17,1.5-.17,1.5-1.83.5-1,1.5-2.5,1.67-.83-.17-1.5.83-.83.67-.83,1.33-2,.67-1.5,2-.67-.33-1.17,1.67-1.5,1.33-1.17-.67-1,1-2.83,2.83-.67,1-2.83.83-.83,1.17-1.33,1.5-1,2.33-1.67,1.5-1.67,1.5-1.83,2.33-4.83-.5-3.67v-1h2.33l2.17-1.17,2.17.83-.33-4.5-.33-1.67,3.5-4.33,2.33-.17,1.33.5,2.33-1.83-1-3-.67-3,1.33-3.33.17-2,3.17-1.67-1,3.33,2,1.17,1.5-3-1-1.83v-2h-2.17l1-4.83,1-1.83-2.67-1.83-2.17,1.17.33-3.83,2.17-3.67,1.33-3.33.83-2.83.83-3,1.17-2.17,2.83-1.67s-.5,1.83,0,1.33,2.67-1.5,2.67-1.5l.17,2.33,4.17-3.5,2.17-.83-.67,4.5,1.33-.5,3.5-4.17,3.67-1,3.83-.67,3,2.17,2.33,3.33,3.17-4.67,3.67-3,7.17-7.33,4.67-3.33,6.5-2.33,5.17-3.33,6.5,1,2.17,2.17,1-3.83-.67-3.83-2.5-4.5-2-2.33.83-4.83-.33-1.33-4.67-.67.17-4,4.83,1,2.67-.83,3.33-2,3.83-4.17-2.17-4.5-.67-2.67,3.67-.83,2.5-1.17-.83,3,1.5,4.17-2,1.17,5.17.33,2.5-1.17,3.17,1.5,2.5,3.83-.83.83,3.83,2.5,2.83-.5,1.5,2.83,1.67,2.67,3.67-1v-3.33l2.5-2.83,1.67-3.33-2.33-2.83,5.33,1.67,1.17-2,2-2,3.83-2.5-3.67-3.17-4.83-4.33-3.67-2.5-2.5.33-3.17-2.33h-3l.67,5.17-1.5-2-1.17-4-.67-4.5-3.5-2.17.5,2.33-3.17-2.67.17-2-4-2.33-6.17-4.17-.83-3-5.67-3-4.33-4.33-5.33-1.33-5-3.5-2.5-2.5-8.17.5h-6l-9-2-.33,4.33-1.33,1.67,3.83,3.33-.67,3.67-4.83,2.33-3-2.67-2.17-1-.33-4.17-2.33-2.5,3,1.33,2.67-1-.17-2.83-4.83-1.17v2.17l-1.67,1.67-3,1.33-.67,2.83-1.5-2-3.83-.33-4.83-.17-3.67-3.17-2.5,1.33-4,.33-2.5,2-3-1.17-4.17-2.5-2.67-.83,1.5-3,.5-2.83-1.67-4.17-2.67-3.83-5.67-1-6.33.33-10.17.5-3.67.17-2.83.17-.83-2.5-.67-3.83-3.83.17-2.83-2.67-2.33-1.67-3.83-.33,1.83-1.67,3.83.33-2.17-4.5-5.67-2.67-5.33.33-2.5,5.17-3.33,3.33-3.33,1.33-.33-2.67,1.67-2.17,3-3.67-.33,5,3.17-6.83-3.67,1-3.17,1-3.67-1,.33-3,5.5.83,3-.67-4.33-1.67-4.83-.83-6.17-1.5-4.33-.17-3.5-1.17-.33,3.83-1.67,2h-4.33l-2.17,2.83h4.5l-2.83,3.67,3,6.17-4.5.83-2-1.83-3.33,2.5-2.33-2.33h-3.17l-5.67-1.17-4,4.5-3.67-2.5-3.83-5.17-3.33,8.17-.67,4.5-2.33,2.17-3.5-3.17-5.17-3.5-.67-4.5-.67-4.33,1.33-4,.83-7-.5-5-5.5-6.83-6.5.33-6.83-3.17-7-1.67-1,6,.67,5.5-3.67.5-9.33-.83-4.5-1.17-2.67.83-1.5-4.33,2.5-1-6.67-1.67-9-1.83-4.33,1.83-4.33.17-1-4.83-1.33-1.5-1.5,4.17-4.17-1.67-.33-3.33-3.83,1.83-3.17-.33-.67,4.83,3.17,1-6,4.17-8,1-4.17,1.5,1.33-3.83,6-4.83,2.33-.83,4.33-5.17,3.33-4.83,7-4.5,2.83,1.83-4.33,3.33,2.67,3.83,3.5-1.17,3-4.5-4-1.17-3.5-2.83,2.33-2.67,4-3.33,2-4.33,1-3-2.83-2.67,2.33-1.33.17-3.33-2.33-4.17-.67-2.83-2.67,1.83-1.5-6.33-5.67-3-7.83-.83-5.83,1.17-1.17,2.67h-7.17l5.5-5.5,1.5-3.67-8.17-1.33-4.33.83,4.17-5.5,2.5-3.17-5.33-2-5.5-1-7.33,4.83-5.33,9.5,1.5,3.5,1.5,4.67-5.83-.67h-4.5l3,4.5-4.33.33-6.5,3.33-6,2,2.17-5.17-7,2s-9.33.67-8.83,1,5.5,2.5,5.5,2.5l-13,4.33-8.5,4.67-5,4.33-3.17-.17-.83,4.17-4,1.83,3.33,5.17s-3.33,2-2.83,2.67c.5.67,7,6.17,7,6.17l-4.17,2-6,.83-6.33-.33-7,1.67-5.17,1.67-2,5.5,2.5,6.33-.67,3.67,4.67,3.83,2,1.33,1.67,3.67,2.5,1.83-.33,4.83.33,7.83-2.17-.83-2,1.17v-5.83l2.67-3.67.17-3-2.83-.67-2.17,1-4-3.5-5.83-5.17-4.5-1-4,2.83,1.83,2.83-2.33,1.67-3.17-2.5-3.33,1.83,4.67,7.17,5.67,1.67-1.33,4-4.17-2.83-4-.5-5-2.33,1-6.33s.33-5.17.33-5.67v-6.67l-2.67-2.83v2.83l.67,4-1.67,4.67-6,3.5-.83,5.5,4.83,7.33.67,5-2.67,6-.17,6.67,2,6,5.83-2.17h5.17l4,4.5.83,6,1,2.17-2.17,3.17,2.17,1.67,1.83,1.67-2.67.83-3.5-2.17,1.33-5.33-1.17-4-2.67-5-8.5,3-1.17,5.17,3.33,5.5-3.5,3.33-1.5,2.83-2.17,4-4.67,3.5.17,3.67-4.67-1.83-5-.33,3.33-2.33,3.5-2,3.17-4.83.83-3.5,2.83-2.17.17-5.17,2.33-4.33-5.17-5-.17-7,1.17-6-1.67-4.17,2.33-.83-.5-9-3.33-5-.5-2.83,1.83-7.83,1-5.67-.83-3.17-4.83-1.33-4.5.17,1.17-2.83,4.67-.83-2.17-3.17-2.67-1.67-3.17,3.67,2.33,2.5-1.17,2.5-2.33-.83-1.5,2.67-.83,3.33-1.33,5.33-1,4.83-2.33,5-4.83,4,1.17,2.5-3,1.83,1.17,1.83,2.33-1v7l.5,2.67-2.67,1.83.83,4.5,1.67-1.5,3,2.17.67-.5v4l2.5,4,1.33.17-.83,4.33-1.67,3.83-2.17-3.17-2.33-3.17s-1.5-2.5-2-2.5-3.83-.67-3.83-.67l-5-3.17-3.83-3.83-4-1.83-5-1.17-4.5-.17-2.17.67-1.33-4.17-6.17-5-.33,3,1.17,3.67,2.83,2.67,3.5.5v1.33l.67,3.33,1.83,3.5-.5,3.5-3.33.83-.5,3.83-2.83-.5v-4.83l-1.33-2.67-3.5,2.67-3.5,1-.17,2-4-.5-4.5.83-2,4.17-4.17-.5s-4.83-.67-3-1c1.83-.33,4.17-2.5,4.17-2.5v-3.67l-4.83-.17-3.33,2,.5,3.83-3.83-1.83-3.83,3.33-8.83,3.83-2.33,3.5-2,5.67-2.83,2.5-5.83-1.67-1.83-4.17.67-4.17,2.67-.33,2.83-1.17-.83-2.67-1.5-1.83-1.83-2.67-5.67-.17-5.67-2,3.83,4.17.83,3.17-.83,4.33-1.5,3.33,2.33,2.83,1.33,2.83-.83,5,.33,5.67-3.83-4.5-4.33-1.83-1.67,2.33-4.17,3.17-4.5,2.83s-1.17,2-.83,2.5c.33.5,2.33,5.83,2.33,5.83l2.17,3.17-2.5.67-4.5-2-5.33-1.33-4.33-3.17s-3.17,3.33-2.67,3.67c.5.33,4.17,4.83,4.17,4.83l3-1,1.17,4.83-2.5.17-4.83-.33-4.17-3.67-3-1.83-2-4.67-.17-4.5.67-2.33.33-3.17-3.17-3-2.83-3-2.5-2.83-2.5.33v-3l.17-2.33,3.5,1.17,1.33,2.5,4,1.67,3.83,1.67,6.17,2.17,3.5,1.83,6.33,1.33,4.5-2.5,3.83-3.17,3.67-5.33-1-3.17-1.5-4-5-4.17-5-2.83-5.17-5.33-4.67-4.17-6.67-2.83-5.5-.17-3.83-1.17-2.67-3-3.33-.67-1.83,1.83-3.33-.67-1,2-2.83,1.67-1,3.33-1.5-.17-1.33,2.83v2.17l1.5,3.33,3.83,4,1.17,3.5,1.17.67-4.67,7.67,4.67,13.17-.83,1-.33,3.83.33,3.83,1.33,2.17.33,3.5,1.5,2.33-2.17,3.33,2,3.17,2.5,1,.67,3,1.17,1-.67,2.5-3.17,3-3,3-2.33,4-2,3.67-3.67,3-2.33,3.17,3.33-1.17.33,1.83,3.17,2.33,1.67-.17,2.17,2.5-3.83-.17-1.67.17-3,1.67-1.33,1.83.33,2.67-2.83,2.83,2,5.67,1.67,1.83.83,3.17.17,5-.17,3.33.67,1.83,6.17.67.83,1.83,3.5-.5,1.33,6.33,1.5,5,2.33,2.33.17,2,2.33,2-1.17,3.17-3.33-.17.67,2.67.83,3.83,2.83-.5,2.5-.17h3.17l2,2.67.67,5,3,.17,1.5,4,.67,1.67,3.5-.33,2.83,1.17,2.5-1.5,1.5,2,2.33,1,2.33,1.83,1.17-.17,1,1.33,2.67.17-.83,3-.5,1.67,1.67,3.33-1.67,2.67-2.67.17-1.83,1.83-2.5,1.5.83,2h3.67l-4,2.67-3.67.67,3.17,3.83-2.5.33-2.17,2.83-2.17,1-1,1,2.67,1.5,1.5,2.33,5.33,2.17s1.33.5,1.83.83,1.5,3.01,1.5,3.01Z"/>
  <path class="cls-3" d="M896.43,188.17l-7.33,5,1,4.33,7.33-2,5.33.67,2-5.33-4.67-3.67-3.67,1Z"/>
  <path class="cls-3" d="M735.43,163.83l-10.67-1.33-5-.67,4-3.67.67-4.33-4.67-2.33,1.67-4.67h4.33l-.67,6.33,1.67,1.33,2.67-1,4.67,1.67,2.67,4,.33,5-1.67-.33Z"/>
  <path class="cls-3" d="M718.43,135.17l-1.67,4-5.67-4.67v-6.67l-2.33-3.33,3.67-5.67,2.67-5,5.67,3,1,5.67,2,2,2.67-1.33-.33-5,3.33-1,6.33,4.67,2.33,1.67,5,1,2,1.67-3.33,4-1.67,4-4-2v-5.67l-5-2.33,2.33,6.33,1,3,3.33,1.33-3.33,2-4.33-.33-3.33.33-5.67,2-.67-3.33-2-.33Z"/>
  <path class="cls-3" d="M749.43,125.17l2,5.33,1.67,4.33,6.67,4,6,1,2.67-3.33-3.67-4.67-4.67-1-3.67-2-7-3.67Z"/>
  <path class="cls-3" d="M529.43,0l-2.5,9.5-12,4.5-.5,8,4.5,7.5,2.5,3.5-5.5,2-6.5-2.5,3,8.5,5.5-1.5,4-3,1,2-5,7,5.5,4.5,2,5,5.5.5,3,5,8.5,1,5.5-4,6,2.5-4,9.5-1.5,9,5.5-2.5,11.5-.5,5.5-6,.5-6.5-6-6-4-3-1-5-4.5-1-1.5,7-.75,4-4.75-2-2-5.25.5-6,.75-5-1.25-5.5-3.25-2.25-2.5,2-3.5-3.75-1.5-1.5-8,1.75-4,2.75v3l-2.25-2.25.25-2.25,2.25-1.25,3-2.5,2.75-2.75h4.75l1.5-1.25-.75-4.75,2.75-4.5-1.5-5-3.75-1.75-1.5-8-2.25-1Z"/>
  <path class="cls-3" d="M408.1,99.83l-5.67,3-7,6.33-7.33,5-5-1-6.67,3.33-5.67,4.67-6.33,5.67-1,5-7,1.67.33,6.33v5.33l-3.67,3-3,6.67,3,2-3.67,4-.67,3-4.33,5-2.67,3.67,2,4-2,4.67-4.33-.67,1.33,6,3.67,3.33,1.33-1.67,3.67,4-1,2.67.67,3,5.67,1.33,4.33,1.33,4.67-1,2,1.67,1-2.33-4-2.67-2.33-4.33-2.33-7-.33-5-.33-8.33,4-3.67,1.67-5.67,2.33-6,1.33-5,2.33,1,1-5.33,1.33-4.33,2.67-.67,2.67,1.33,1.33-4.67,2.33-5,2.33-.67,5-5.33,4.67-2.33h3.33l5.67-4.67,7.33-3.67,4.67-2.33,1-3,2-2.67-1.67-2,1-3.33-3.67-2.67-2-1Z"/>
  <path class="cls-3" d="M325.77,215.83l-3.67,3.67,1.33,4.67,6-1,3-4.67-3-2.67h-3.67Z"/>
  <path class="cls-2" d="M214.18,357l-4.12.12-3.62-1.25-3.88.12h-1.25l1.25-1.38-.75-1.38,2.75-.62.25,1.25,1.38-1.12-.38-2.25,1-.5-.38-1,1.88,1.25,2.75,1,3.5,1.12.25,2-.12,1.62-.5,1Z"/>
  <path class="cls-2" d="M126.77,380.5l-2.5,1.33-2.33,1.17-1,3.33-.83,1.67-3.83,1.67-.17,2.17-1.5.5-3.17-.17h-1.33l-1.67-1.5h-2.17l.83,2.67.83,1.5.33,2.67-2.5.17-2.33-.17-2.17-1.5-2.33.17-2.83,1.5-2.67.33s-2.5,0-1.83.33c.67.33,2.17,1,2.17,1l1.67,1-.83,1.17,2,1.33,1.67-.17,2.33,1.5,1,1,1.17-.17,1.83.17-.5,2.17,1.33,1.5.67,1.33,2.17,2,1.5,1.67-.17,1.17.5,2.17.5.83-1-.17-.5,2.5.33,3.17-.33,2.83-.33,1.83,1.33,1.67-.33,1.5,3.67,1.17,3.17.33,3-.17,2,.33,2,1.33,3.17.5h2.17l.67-2.17-.67-.67,1.33-1.83,1.17.17,2-1,1.67.83,2.17.83,1.67.33,2,.33,2.5-.33.5-1.33,2.17-1.17,1.33-1,2.46-1.67-1.38-1.38-1.42-.62-1.17-1-.12-2.92-.88-.75,1.62-2.5.21-3.42-.92-2.92-1.33-.67-1.92.67.83-2.67,2.5-3.58,2.42-1.42-.5-3.42.67-2.42,2.58-3.5-3.83-.67-3.17-1.17-2.17-.67h-1l-3.83-2.5-.33-2.17-2.17,1.33-1-2-1.5-2.17-2.33-.17-.83-1.33-1.17-.17-1-1.49Z"/>
  <path class="cls-2" d="M154.93,432l-.5,1.67h-1l-1.33,1.33-.5,1.83.83,1.67,1.33,2,1,1.17,1-2.5.5-1.83-.5-3.17v-1.5l-.83-.67Z"/>
  <path class="cls-2" d="M220.32,601.57l1.7-4.2.18-1.78,1.88-2.72,3.51-.35,1.76,3.14.3.83,2.18.24,1.21-.59,3.45.41.85.77,3.03.06,1.03-1.24,2.18.18-.61-2.07,2.79-1.06,4.48,2.78,1.76-.71,2.97-4.02,1.94-1.42-.73-1.07v-2.48l-.73-1.24,2.6.06-.06-.95,2.48.18-.67,2.01.42,4.56,3.39,3.2-.3-.12.48-2.9,3.3-.74.52-3.34,3-4.94,2.09-.71,1.06-9.47,2.06-5.09,1.6-4.62,2.06-1.27,2.63-1.92-4.51-3.43-.54-8.46-.7-3.31-1-2.96-3.33-2.49-1.21-1.48-.7-.62-1.15.8-1.48.41-1.51,2.57-1.76.32-1.21,2.07-2.18.09-1.36-.74-8.66-.18-.21-.86-.39-.12.06,1.12-26.46-.12.06,9.17-4.51-.59-.63,1.86.03,18.17-3.75-.74-.82,2.6-2.82,3.73.51,2.78-2.3,2.84,2.7.86.54,4.94,2.33,2.19.06,2.04,2.76,2.22v4.94l1.7.47.67,2.52Z"/>
  <path class="cls-2" d="M220.31,601.53l1.69-4.2.18-1.78,1.88-2.72,3.51-.35,1.76,3.14.3.83,2.18.24,1.21-.59,3.45.41.85.77,3.03.06,1.03-1.24,2.18.18-.6-2.07,2.79-1.07,4.48,2.78,1.76-.71,2.97-4.02,1.94-1.42-.73-1.07v-2.49l-.73-1.24,2.6.06-.06-.95,2.48.18-.67,2.01.42,4.56,3.39,3.2-.24.44-1.42,7.34-2.6-.03,1.31,3.57,1.24.51,4.12,4.71,2.55,4.87-8.95,7.62-9.57.74-5.6-4.79-5.27,1.01-3.15-1.75-.48-2.69-3.88-2.99-1.09-3.67-4.72-1.51-1.67-1.86-1.12-2.16-2.94-.53.18-1.3Z"/>
</svg>